<svg xmlns="http://www.w3.org/2000/svg" viewBox="0 0 229.15 229.13"><title>ícono maletin trabajo barra busquedaRecurso 1</title><g id="Capa_2" data-name="Capa 2"><g id="Capa_1-2" data-name="Capa 1"><path d="M229.07,54.83c0-11.1-4-14.8-15.13-14.9-13.93-.12-27.87-.18-41.8,0-5.32.09-7.91-.76-9.06-7.14C159.4,12.45,145.16,1,124,.11c-5-.22-10,0-14.93,0C83.7.1,70.91,9.48,64.65,33.81c-1.32,5.1-3.34,6.23-8,6.16-14.26-.19-28.53-.16-42.8,0C2.48,40,0,42.57,0,54.15q0,80.1,0,160.21c0,13.07,1.7,14.72,15.16,14.74q49.77.08,99.53,0,49.28,0,98.54,0c12,0,15.79-3.41,15.82-15.06Q229.24,134.44,229.07,54.83ZM85.52,32.44c4.25-10.39,12.86-12.64,22.61-12.39,12.5.32,26.64-3.55,34.14,11.52,2.77,5.58,1.41,8.69-5.56,8.4-7.6-.31-15.22-.07-22.84-.07S98.64,39.72,91,40C85.17,40.15,83.05,38.47,85.52,32.44Zm114.84,176.9c-28.84-.34-57.68-.14-86.52-.14-28.17,0-56.35-.24-84.52.16-7.39.11-9.76-2-9.55-9.47.51-18.54.4-37.11,0-55.66-.13-6.65,1.46-9.44,8.74-9.24,17.56.48,35.13.28,52.7.08,5.38-.06,9,.57,8.5,7.35-.67,8.85,4.3,12.63,12.73,12.63h22.87c8.74,0,13.93-4.15,14-13.1,0-5.12,1.79-6.95,7-6.88,18.56.21,37.12.25,55.68,0,5.8-.09,7.35,2.2,7.29,7.62-.23,19.22-.36,38.44.06,57.66C209.49,207.27,207.33,209.42,200.36,209.34Zm-85.91-94c7.92,0,4.81,6.41,5,10.25.13,3.61,2.5,9.44-4.71,9.47-8.15,0-3.64-6.7-5.4-9.73C110.44,121.25,107.18,115.3,114.45,115.34Zm94.88-46.65c-.48,12.93-.3,25.88-.06,38.82.1,5.22-1,7.92-7.07,7.82-18.58-.3-37.17-.23-55.76,0-5,.06-7-1.5-7.1-6.78-.11-9.19-4.72-13.91-14.49-13.3-7.6.47-15.27.28-22.89,0C93.8,95,89,98.18,89.75,106.81c.56,6.52-1.76,8.7-8.36,8.55-17.59-.39-35.19-.45-52.77,0-7.21.19-9.06-2.47-8.81-9.2.45-11.92.59-23.9,0-35.82-.43-8.06,1.76-10.91,10.34-10.74,28.2.54,56.42.2,84.63.2,28.54,0,57.09.2,85.62-.15C207.37,59.59,209.6,61.74,209.33,68.69Z"/></g></g></svg>