<svg xmlns="http://www.w3.org/2000/svg" viewBox="0 0 254.21 189.11"><title>ícono acompañamiento procesos etcRecurso 3</title><g id="Capa_2" data-name="Capa 2"><g id="Capa_1-2" data-name="Capa 1"><path d="M140.83,96.93c6.65-.91,11.84.29,15.11,6.11.39.69,2.31.73,3.51.72,4.19-.05,7.6,1.51,9.58,5.17,1.21,2.24,2.36,2.91,5,2.62,7.3-.8,12.47,3.36,12.49,10.92,0,18.78.74,37.66-4.23,56.09-1.8,6.66-5.94,10.33-12.77,10.43-11.33.16-22.66.18-34,0-6.27-.1-11.08-3.08-14.24-8.64C114,167.62,106.68,155,99.52,142.19A54.68,54.68,0,0,1,96,133.45c-1.5-4.34-.68-8.4,2.84-11.34a10.78,10.78,0,0,1,12.61-1.23c2.57,1.37,4.8,3.36,7.8,5.52.11-2.24.26-4,.26-5.7q0-18.74,0-37.49c0-4.46,1.49-8.17,5.36-10.62,6.06-3.84,13.17-1.27,15.06,5.67a40.83,40.83,0,0,1,.9,8.87C140.94,90.25,140.83,93.38,140.83,96.93ZM126.9,111.29c0,9.17.16,18.34-.13,27.5-.06,1.89-1.8,3.74-2.76,5.61-1.76-1.18-3.9-2-5.19-3.59-3.37-4.07-6.2-8.61-9.65-12.61a5,5,0,0,0-4.83-.8c-1,.58-1.38,3.17-1.11,4.7a19.29,19.29,0,0,0,2.52,5.93c7.14,12.6,14.38,25.14,21.51,37.74,2.27,4,5.48,6,10.15,5.93,10-.12,20-.16,30,0,4.83.08,7.13-1.92,8.25-6.67,4-17.06,3.84-34.37,3.4-51.69,0-1.57-2.54-3.09-3.91-4.63-1.46,1.51-4,2.92-4.19,4.57-.56,5.27-.2,10.64-.26,16,0,2.6-.28,5.33-3.73,5.37s-3.67-2.62-3.66-5.29c0-7.83.16-15.67-.15-23.49-.06-1.49-2-2.9-3-4.35-1.23,1.31-2.76,2.46-3.59,4-.57,1-.22,2.61-.22,3.94,0,6.5,0,13,0,19.5,0,2.66.22,5.84-3.76,5.69-3.61-.14-3.31-3.06-3.31-5.59q0-15,0-30c0-3-1.55-5.19-4.5-4.51-1.65.38-3.94,2.71-4,4.3-.48,6.64-.22,13.32-.26,20a106,106,0,0,1-.31,12c-.16,1.29-2.15,2.34-3.31,3.51-1.15-1.19-2.63-2.2-3.36-3.61-.54-1.05-.15-2.61-.15-3.94,0-17.83.08-35.67-.14-53.5,0-1.67-1.67-4.55-2.91-4.75-3.22-.51-3.34,2.35-3.34,4.79Q126.92,97.3,126.9,111.29Z"/><path d="M214.11,53.06c-9.44,2.22-11.51,4.65-11.41,13.8.06,5.08-1.23,11.77,1.43,14.74,2.31,2.58,9.33,1.07,14.27,1.14,8,.11,16-.09,24,.08,3.51.07,4.81-1.4,4.72-4.73-.1-3.49,0-7,0-10.48-.05-9.39-2.31-12.25-11.6-14.57.37-.4.65-1,1-1.06,3-.73,4.24-5.84,8.42-3.62,4.82,2.57,8.34,6.7,8.83,12a158.52,158.52,0,0,1,.12,22.44c-.2,4.17-4.4,7.4-9.27,7.46-13.31.15-26.63.2-39.94,0-5.88-.1-9.34-4.09-9.43-10-.08-5.49-.34-11,.11-16.46a22.7,22.7,0,0,1,2.84-9.32C202.6,46.87,205.49,46.71,214.11,53.06Z"/><path d="M18.62,52.68C9.56,55.18,7.17,58.15,7.11,67.3,7,82.77,7,82.77,22.49,82.77c8.15,0,16.31-.13,24.47,0,3.5.08,4.8-1.24,4.62-4.67s0-7,0-10.48c0-9.92-1.67-12.1-11.11-14.65,0-.16,0-.41.14-.46,2.92-1.49,6.44-4.78,8.66-4.06,5.65,1.82,9,7,9.52,12.93a170.54,170.54,0,0,1,.12,20c-.17,4.88-3.79,8.45-9.33,8.58-13.31.29-26.64.32-39.95,0-6.4-.15-9.44-3.9-9.54-10.4C0,74.43,0,69.26.06,64.1c0-1.65-.24-3.64.55-4.9,2.26-3.58,4.51-7.41,7.64-10.12C13.21,44.78,14.8,52.27,18.62,52.68Z"/><path d="M45,31.55A15.16,15.16,0,0,1,29.21,46.67,15.08,15.08,0,0,1,14,31a15.57,15.57,0,0,1,15.71-15.3A15.68,15.68,0,0,1,45,31.55ZM29.42,39.62a8.32,8.32,0,0,0,8.15-8.37,7.73,7.73,0,0,0-7.87-7.92,8.14,8.14,0,0,0-8.56,7.88A8.7,8.7,0,0,0,29.42,39.62Z"/><path d="M240.1,31.59A15.44,15.44,0,0,1,209.22,31a15.44,15.44,0,1,1,30.88.62Zm-15.53-8.26a7.69,7.69,0,0,0-8,8.29,8.28,8.28,0,0,0,8,8A8.72,8.72,0,0,0,233,31.33,8.11,8.11,0,0,0,224.57,23.33Z"/><path d="M126.46,46.66c-8.42-.33-15.21-7.31-15.08-15.5.14-8.5,7.86-15.8,16.33-15.43,8.22.35,15.65,8.29,15.14,16.18A15.8,15.8,0,0,1,126.46,46.66Zm8.83-15.19a8.22,8.22,0,0,0-16.43-.22,8.22,8.22,0,1,0,16.43.22Z"/><path d="M115.41,52.09C112,54.88,108.28,57,106,60.22c-1.5,2.09-1,5.7-1.14,8.64-.16,2.48.13,5-.07,7.46-.34,4.14.46,7.11,5.86,6.14v6.22c-8.11,1.94-13-1.64-13.21-9.76-.12-4.81-.18-9.63,0-14.43.12-2.44.27-5.33,1.59-7.15,2.44-3.38,5.32-7,8.89-8.74C109.68,47.77,113.37,51.05,115.41,52.09Z"/><path d="M149.33,88.91v-21c0-9.64-1.53-11.7-10.7-14.49,6.11-6.65,9.75-6.6,14.63.91A22.83,22.83,0,0,1,156.63,64a101,101,0,0,1,.1,15.94C156.51,84.09,155,87.67,149.33,88.91Z"/><path d="M115.22,9.33c-1.71-2.17-3.74-3.72-3.5-4.7.37-1.48,2.32-2.57,3.6-3.83,1.13,1.22,3.05,2.37,3.18,3.68S116.82,7.11,115.22,9.33Z"/><path d="M99.93,15.33c-1.63-2.3-3.52-3.86-3.25-4.84C97.06,9.06,99,8,100.25,6.84c1.08,1.21,2.92,2.37,3,3.66S101.6,13.06,99.93,15.33Z"/><path d="M73.58,59.39c1.8,2.28,3.76,3.71,3.6,4.84-.2,1.46-2.1,2.68-3.27,4-1.2-1.12-3.3-2.2-3.36-3.37C70.49,63.4,72.11,61.86,73.58,59.39Z"/><path d="M78.88,48.89c-2.3,1.58-3.9,3.46-4.94,3.19-1.43-.38-2.43-2.38-3.61-3.68,1.25-1.08,2.47-3,3.75-3S76.67,47.17,78.88,48.89Z"/><path d="M180.86,51.24c1.61,2.49,3.28,3.92,3.14,5.16s-2,2.38-3.15,3.56c-1.16-1.17-3.11-2.25-3.24-3.52S179.19,53.74,180.86,51.24Z"/><path d="M87.41,87.91c1.77,2.48,3.48,3.82,3.37,5s-1.9,3.22-3,3.27-3.07-1.77-3.28-3S85.85,90.52,87.41,87.91Z"/><path d="M165.45,14.25c-2.17,1.71-3.51,3.57-4.7,3.48s-3.52-2.2-3.37-3.1A5.47,5.47,0,0,1,160.72,11C161.7,10.7,163.26,12.64,165.45,14.25Z"/><path d="M83.23,33.42c-2,1.67-3.31,3.55-4.52,3.5s-3.47-2.16-3.33-3.06A5.63,5.63,0,0,1,78.62,30C79.5,29.75,81.12,31.8,83.23,33.42Z"/><path d="M183.31,40.53C181.25,42.17,180,44,178.77,44s-3.58-2.14-3.42-2.92a5.85,5.85,0,0,1,3.25-3.85C179.49,36.89,181.13,38.9,183.31,40.53Z"/><path d="M100.35,98.2c1.6,2.22,3.39,3.62,3.25,4.79s-2.34,3.33-3.26,3.15a5.47,5.47,0,0,1-3.52-3.46C96.59,101.75,98.62,100.28,100.35,98.2Z"/><path d="M130.59,8.24c-1.58-2.55-3.24-4.06-3-5.19S129.82,0,131,0s2.95,2.08,3.07,3.37S132.39,5.86,130.59,8.24Z"/><path d="M87.32,25.41c-1.54-2.71-3.1-4.22-2.86-5.36s2.16-2.19,3.35-3.26c1.06,1.21,2.84,2.34,3,3.64C90.88,21.58,89.16,22.9,87.32,25.41Z"/><path d="M176.63,26.11c-2.43,1.67-3.83,3.4-5,3.25s-3.2-2-3.23-3.2,1.9-3.1,3.14-3.25S174.17,24.46,176.63,26.11Z"/><path d="M78.17,85c-1.47-2.59-3-4.12-2.81-5.32s2.16-2.21,3.35-3.29c1.06,1.22,2.91,2.4,3,3.67S80,82.61,78.17,85Z"/><path d="M176.4,86.5c-2.09,1.75-3.51,3.75-4.48,3.56a5.45,5.45,0,0,1-3.53-3.42c-.21-.86,1.87-3.09,3.12-3.26S174.12,85,176.4,86.5Z"/><path d="M146.41,1.69c1.79,2.46,3.53,3.82,3.41,5s-2,2.39-3.08,3.58c-1.18-1.11-3.08-2.08-3.33-3.37C143.2,5.76,144.83,4.27,146.41,1.69Z"/><path d="M183.62,72.53c-2.54,1.49-4,3.07-5.22,2.86s-2.2-2.12-3.29-3.29c1.19-1.09,2.32-3,3.58-3S181.22,70.74,183.62,72.53Z"/></g></g></svg>