<svg xmlns="http://www.w3.org/2000/svg" viewBox="0 0 247.67 222.39"><title>ícono proyección laboralRecurso 1</title><g id="Capa_2" data-name="Capa 2"><g id="Capa_1-2" data-name="Capa 1"><path d="M167.57,133.86,179,151.4a44.11,44.11,0,0,1,6.21-2.05c7.14-1.27,13.22.61,17.61,6.65,8.62,11.86,17.33,23.65,25.73,35.66,5.56,8,4.05,17.62-3.64,23.54-3.5,2.69-7.38,5.54-11.52,6.6-7.36,1.88-13.74-.79-18.32-7.14q-10.65-14.81-21.36-29.56c-9.26-12.8-9.39-16.88-.74-29.69-3.24-4.9-6.54-9.89-9.86-14.88-.54-.81-1.17-1.57-1.74-2.32-45.21,24.39-87.69.12-102.61-29.77-17.07-34.21-6.44-75.8,25.34-96.6C115.4-8.65,157-1.95,180.76,27.34,204,55.85,204.34,104.33,167.57,133.86ZM57.61,74c0,37.14,29.61,67.11,66.28,67,36.43-.07,65.94-30,66-66.86S160,7,123.47,7.13,57.62,37,57.61,74Zm167,126.4a21.52,21.52,0,0,0-2-4.59C214.29,184.17,206,172.54,197.46,161c-4.1-5.53-9.5-6.14-15.26-2.18-1.24.84-2.46,1.71-3.64,2.63-5.62,4.42-6.48,9.36-2.37,15.13q12,16.86,24.24,33.57c3.46,4.74,7.63,6.31,12,4.85C219.05,212.82,224.78,206.4,224.63,200.41Z"/><path d="M23.76,73.68C11.39,78,7.1,83.94,7.05,97q0,12.48,0,25c0,1.48-.21,3.54.62,4.31a12.89,12.89,0,0,0,5.74,2.78c.44.1,2-2.46,2.19-3.92.39-2.61-.21-5.4.34-8,.31-1.4,2.12-2.47,3.25-3.7,1.13,1.26,3.08,2.41,3.24,3.78.46,3.73.16,7.56.16,11.69h35l.76-4.58,10.8,11.54c-1.8.18-3,.4-4.26.4-17.14,0-34.29.05-51.44,0C4.12,136.28.08,132.2,0,122.9c0-9.66-.07-19.31,0-29a26.9,26.9,0,0,1,10-21.39C16.8,67,17.6,67.09,23.76,73.68Z"/><path d="M223.38,73.69c6.94-6.4,7.77-6.39,14.39-.82,7.2,6.06,9.52,14.2,9.73,23.12s.21,18,.09,26.93-4.21,13.1-13.24,13.16c-17.3.12-34.61,0-51.91,0-1,0-1.93-.17-4-.36L189,123.69l1,5.59c10.82,0,21.59.08,32.37-.15.88,0,2.3-2,2.47-3.21.39-2.78-.25-5.73.35-8.43.32-1.5,2.28-2.65,3.51-4,1,1.33,2.77,2.57,2.92,4a99.57,99.57,0,0,1,.14,11.18c6.54,1,8.43-.24,8.59-5.65.26-9.15.45-18.31.2-27.45C240.23,84.45,235.12,76.61,223.38,73.69Z"/><path d="M42.44,62.57c.26,7.61-.55,8.25-7.26,6.56-8.52-2.15-14.33-9-15.73-18.61C18.34,42.93,23,34.25,30.29,30.11c7.51-4.25,15.42-3.64,22.76,2.07L50.27,38c-6.75-3.82-13.35-5-19.4.57a13,13,0,0,0-3.64,14.2C29.49,59.82,34.84,62.92,42.44,62.57Z"/><path d="M205.21,69.51c-.23-2.35-.43-4.43-.66-6.86,8,.23,13.56-2.89,15.76-10.53,1.65-5.73-.22-10.67-4.68-14.29-5.82-4.74-12-3.63-18.37.2-1.06-2-2-3.79-3-5.59,6.87-6.19,16.19-6.76,24-1.65a21.43,21.43,0,0,1,8.41,25C223.75,64.58,215.37,70.12,205.21,69.51Z"/><path d="M216.36,77.2c.74,8,1.5,15.43,2.06,22.87.31,4-5.51,13.52-9.2,14.37-1.92.44-4.95-.12-6.2-1.44-1.82-1.94-3.55-5-3.4-7.51.22-3.49,2.19-6.87,3.13-9.49l2.76,10.41,2.76.12c.91-2.71,2.55-5.42,2.58-8.14.06-6.43-.64-12.87-1-19.52Z"/><path d="M31.13,77.55c6.84.2,6.88.21,6.52,6.39-.27,4.64-1,9.27-.88,13.89.08,2.84,1.44,5.65,2.23,8.48l2.65.1,3.22-10.25c.9,2.48,3.14,6,3.12,9.45,0,2.71-2.29,6.18-4.62,7.82-1.52,1.06-5.72.35-7.33-1.11-5.34-4.84-8.39-10.68-6.47-18.56C30.84,88.53,30.66,82.94,31.13,77.55Z"/><path d="M106.74,61.89C94.1,66.84,90.52,72.17,90.51,86c0,8.17,0,16.33,0,24.5,0,6.3,1.49,7.45,8.48,6.24,0-3.34-.36-6.86.16-10.24.25-1.6,2.21-3,3.39-4.41,1.1,1.38,3,2.66,3.16,4.16.48,3.4.15,6.91.15,10.76H141.1c0-3.22-.42-6.71.17-10,.32-1.79,2.37-3.28,3.64-4.91,1.2,1.66,3.12,3.19,3.44,5,.56,3.18.16,6.54.16,9.72,6.88,1,8.44-.25,8.47-6.49q.08-13.24,0-26.49c-.05-11.2-3.94-16.41-16.41-22.17,6-6.32,6.7-6.41,13.24-1,5.88,4.9,9.75,11,9.94,18.84.28,11.32.37,22.65.14,34-.13,6.72-4.35,11-11.08,11.07q-29,.33-58,0c-6.67-.07-11.15-4.21-11.28-10.95-.24-12.47-.39-25,.71-37.42.78-8.77,6.55-15.37,14.77-18.65,2-.82,5.45,1.75,8.23,2.76Z"/><path d="M123.4,58c-11.82-.13-20.73-9.56-20.51-21.71.2-11.18,9.71-20.7,20.78-20.79,11.61-.09,21.24,10,21,22A20.73,20.73,0,0,1,123.4,58Zm.36-35a13.84,13.84,0,0,0-13.91,13.9,13.9,13.9,0,1,0,27.8,0A13.74,13.74,0,0,0,123.76,23Z"/><path d="M126.68,66.64l6.67-1.74c.49,9.26,1.8,18,1,26.58-.34,3.73-4.78,7.26-7.81,10.45-.88.92-4,1.08-5,.27-4.42-3.45-9-7.3-8.92-13.53.17-7.62,1.1-15.22,1.74-23.39l6.87,1.57C120.76,73.07,120,79,120,84.94c0,3.12,1.42,6.23,3.12,9.24C131.73,85.74,125.05,76,126.68,66.64Z"/></g></g></svg>