<svg xmlns="http://www.w3.org/2000/svg" viewBox="0 0 173.88 234.53"><title>ícono ubicación barra busquedaRecurso 2</title><g id="Capa_2" data-name="Capa 2"><g id="Capa_1-2" data-name="Capa 1"><path d="M110.31,3.52c-30.16-8.58-56.4-1.13-79.7,18.54C-.54,48.37-13.15,100.61,18,136.49c23.09,26.61,40.45,56.29,56.81,86.94,2.81,5.26,5.35,11,12.06,11.1s9.2-5.69,12.08-10.9c15.47-28,29.42-56.89,52.05-80.3a81.33,81.33,0,0,0,22.92-53.52C174,49.37,147.05,14,110.31,3.52Zm23.5,127.64c-19.16,20.59-32.07,45.52-46.92,70.65-16.07-28.2-32.66-54.46-53.14-78.51-19.51-22.89-16.58-56,3.42-79.8C56,21.06,88.68,14.24,115,27.23,157.12,48,165.78,96.79,133.81,131.16Z"/><path d="M87.56,45.84A33.74,33.74,0,0,0,53.38,79.08c-.15,18,14.91,32.94,33.25,33S120.2,97.48,120.4,79.56,105.61,46.28,87.56,45.84ZM99.4,79.74c-1.06,6.94-5,11.82-13.31,11.92-6.91-.79-11.46-4.8-12.07-12.22C73.46,72.5,79.64,66.81,87,66.85S100.48,72.7,99.4,79.74Z"/></g></g></svg>