<svg xmlns="http://www.w3.org/2000/svg" viewBox="0 0 174.63 249.7"><title>ícono Visibilidad perfil etcRecurso 2</title><g id="Capa_2" data-name="Capa 2"><g id="Capa_1-2" data-name="Capa 1"><path d="M0,124.49Q0,70.22,0,16c0-1.5,0-3,0-4.5C.39,3.54,4,0,11.9,0H118.39q22,0,44,0c7.7,0,10.91,2.71,12.05,10.28a37.14,37.14,0,0,1,.17,5.49q0,109,0,218a34,34,0,0,1-.72,7.4c-1.37,6-4.35,8.41-10.54,8.44-12.33.07-24.66,0-37,0h-112C3.26,249.68,0,246.51,0,235.51Q0,180,0,124.49Zm167.23,98.42v-5.63q0-101.52,0-203c0-7-.19-7.19-7.41-7.19H15.32C7.15,7.05,7,7.13,7,15.52q0,100.52-.11,201c0,5,1.27,6.49,6.41,6.47,49.16-.2,98.33-.12,147.49-.12Zm-1,7h-153c-1,0-2.24-.36-3,.1-1.26.82-3,2-3.17,3.25-1.11,7.65.24,9.06,7.9,9.06H157.58c10.07,0,10.67-.68,9.47-10.83A7.52,7.52,0,0,0,166.27,229.9Z"/><path d="M87.37,23.55c31.05.14,56.44,25.76,56,56.53a56.43,56.43,0,0,1-56.1,56C56.41,136.2,31,110.78,31,79.78A56.32,56.32,0,0,1,87.37,23.55Zm-49,56.15c0,27.14,21.67,49.25,48.47,49.36a49.19,49.19,0,0,0,49.25-49.14c0-27-21.79-49.23-48.54-49.35A49,49,0,0,0,38.41,79.7Z"/><path d="M111.88,165.51h-36c-2.77,0-6.06-.16-5.54-3.79.2-1.41,3.52-3.38,5.44-3.4q36.72-.34,73.44,0c1.83,0,4.93,2,5.21,3.55.63,3.39-2.5,3.63-5.11,3.63Z"/><path d="M116.82,197.35c10.65,0,21.3,0,31.94,0,2.65,0,5.87-.27,5.88,3.6s-3.07,3.71-5.81,3.71H84c-2.72,0-5.83.09-5.89-3.63s3.14-3.67,5.82-3.68C94.87,197.33,105.85,197.35,116.82,197.35Z"/><path d="M52.33,177.93h27c2.58,0,5.42-.06,5.44,3.49s-2.83,3.51-5.41,3.51H24.89c-2.69,0-5.61-.33-5-3.7.24-1.36,3.2-3.1,5-3.16C34,177.76,43.17,177.93,52.33,177.93Z"/><path d="M130,177.93c6.64,0,13.28,0,19.93,0,2.57,0,5.16.55,4.54,3.62-.27,1.36-2.82,3.2-4.37,3.23q-20.16.38-40.34,0c-1.57,0-3.1-2.12-4.64-3.25,1.65-1.2,3.25-3.32,5-3.42C116.74,177.69,123.4,177.93,130,177.93Z"/><path d="M34.33,165.46c-3,0-6,.34-9-.15-1.35-.24-2.42-2.11-3.63-3.24,1.23-1.28,2.39-3.6,3.7-3.69a147.35,147.35,0,0,1,18.44,0c1.33.08,2.53,2.3,3.8,3.53-1.29,1.19-2.45,3.17-3.9,3.42-3.07.53-6.3.16-9.45.16Z"/><path d="M30.66,204.61c-2.49,0-5.07.41-7.42-.16C21.86,204.12,20,202.26,20,201s2-3.33,3.18-3.42a101.37,101.37,0,0,1,15.39,0c1.29.1,2.43,2.19,3.64,3.36-1.35,1.23-2.52,3.12-4.07,3.52-2.34.61-4.94.16-7.43.16Z"/><path d="M108.67,70.88c5.2,2,7.47,5.5,7.46,10.55,0,8.49-.08,17,0,25.47.06,4.26-1.74,5.87-6,5.83q-23-.24-45.94,0c-4.23,0-6.1-1.55-6-5.85.13-8.49,0-17,0-25.47,0-5.28,2.5-8.73,7.62-10.47L72,77.2c-6.31-.25-6.74,3.34-6.54,7.89.3,6.61.08,13.24.08,20.62H78c8.82,0,17.64-.11,26.46.05,3.46.07,4.73-1.13,4.58-4.63-.24-5.31-.09-10.65-.06-16,0-4.06.85-8.58-6.33-7.93Z"/><path d="M87,73.59a17.24,17.24,0,0,1,.44-34.48,17.56,17.56,0,0,1,17.15,17.22A17.53,17.53,0,0,1,87,73.59ZM97.17,56.17c-.09-5.73-4.47-9.8-10.37-9.63a9.79,9.79,0,0,0-9.65,10c.11,5.67,4.6,9.78,10.51,9.62A9.55,9.55,0,0,0,97.17,56.17Z"/></g></g></svg>