<svg id="Capa_1" data-name="Capa 1" xmlns="http://www.w3.org/2000/svg" viewBox="0 0 395.6 308.48"><defs><style>.cls-1{fill:#2c3690;}</style></defs><title>CAMARA</title><path class="cls-1" d="M-364.8,169.41c-19.48-.25-39-.28-58.46-.23-3.1,0-4.69-1-6.06-3.78-5.1-10.38-8.36-21.34-11.45-32.42-3.37-12.07-8.08-15.68-20.49-16.73-3-.25-6-.39-9-.4q-60-.12-119.93-.22a16.87,16.87,0,0,0-10.6,3.63c-7.06,5.33-10.11,13-12.53,21.07-2.54,8.44-4.63,17-8.39,25-1.32,2.82-2.92,3.83-6,3.8-17.82-.15-35.64-.11-53.47-.05a48.81,48.81,0,0,0-12.86,1.26c-18.35,5-29.1,19.32-29.13,39.22q-.1,87.2,0,174.4c0,9,2.14,17.49,7.78,24.77,8.47,11,19.71,15.39,33.5,15.32,52.13-.23,104.27-.09,156.41-.09q78,0,155.91,0c4.47,0,9,.15,13.37-1.13,17.32-5.07,28.35-19.06,28.43-37.76.23-58.8.13-117.6.06-176.4C-327.76,187-344.27,169.67-364.8,169.41ZM-526.19,395.55c-54.14-.4-98.48-45.09-98.22-99,.26-54.11,44.9-98.52,98.83-98.32,54.78.2,99,44.58,98.5,98.94C-427.56,352.1-471.73,396-526.19,395.55Zm151.94-165.8c-7.85,0-13.64-5.66-13.65-13.37a13.43,13.43,0,0,1,13.4-13.71,13.66,13.66,0,0,1,13.77,13.46A13.55,13.55,0,0,1-374.25,229.75Z" transform="translate(723.25 -115.63)"/><path class="cls-1" d="M-525.42,236.82a60,60,0,0,0-60.1,60,59.68,59.68,0,0,0,59.94,60,59.92,59.92,0,0,0,60-60.06A60.29,60.29,0,0,0-525.42,236.82Z" transform="translate(723.25 -115.63)"/></svg>