<svg xmlns="http://www.w3.org/2000/svg" viewBox="0 0 461.94 444.46"><defs><style>.cls-1{fill:#37499e;}.cls-2{fill:#374a9e;}.cls-3{fill:#5565ad;}</style></defs><title>icono participantesRecurso 1</title><g id="Capa_2" data-name="Capa 2"><g id="Capa_1-2" data-name="Capa 1"><path class="cls-1" d="M455.41,170.17c-4.26-14.65-8.29-29.28-15.64-42.81-5-9.15-9.37-18.57-15.67-27-5.23-7-10.11-14.17-15.91-20.75A235.41,235.41,0,0,0,377.51,50.4a229.22,229.22,0,0,0-31.5-21,238.21,238.21,0,0,0-30.83-14.23A234.62,234.62,0,0,0,269,3a246.72,246.72,0,0,0-73.6-.43,235.78,235.78,0,0,0-67.16,20.33A219.49,219.49,0,0,0,98,40.24,254.13,254.13,0,0,0,66.3,66.07C61.13,71,56.44,76.35,51.69,81.66c-5.89,6.59-10.63,14.08-15.85,21.18-6.12,8.33-10.5,17.78-15.19,26.93-7.11,13.86-11.32,28.91-15.33,43.91-3.17,11.88-4.51,24.13-5,36.43-1,22.6.38,44.93,6.92,66.79,4.37,14.61,8.65,29.19,16.21,42.6,4.87,8.63,9.05,17.63,15.17,25.55,5.32,6.89,9.93,14.31,16.1,20.59,5,5.07,9.51,10.54,14.77,15.4a233.82,233.82,0,0,0,62.18,41.8,226.63,226.63,0,0,0,46.94,15.84A240.82,240.82,0,0,0,318.9,427.83a233.69,233.69,0,0,0,46.63-24.91,242.65,242.65,0,0,0,30.23-24.78c5.5-5.24,10.47-11.06,15.51-16.78,5.77-6.56,10.39-14,15.51-21.05,6.27-8.62,10.65-18.39,15.42-27.84,7.29-14.47,11.44-30.17,15.24-45.84a158.57,158.57,0,0,0,4.45-39.57C461.75,204.44,460.36,187.15,455.41,170.17ZM378.88,345.23c-11.87-.19-23.74-.08-35.62-.08-26.05,0-52.11,0-78.17.06-2.72,0-3.43-.57-3-3.33.93-5.86,1.45-11.78,2.24-17.66a3.14,3.14,0,0,0-1.58-3.5q-7.44-4.83-14.78-9.84c-1.12-.77-1.66-.66-2.22.57-1.2,2.65-2.45,5.29-3.82,7.86a3.52,3.52,0,0,0,.12,3.15c2.37,6.71,4.68,13.46,7.14,20.14.69,1.88.72,2.63-1.67,2.6-9.56-.12-19.12-.09-28.68,0-2,0-2.4-.36-1.64-2.35,2-5.35,3.82-10.78,5.73-16.18a15.75,15.75,0,0,1,1.14-2c1.31-2.49,2.32-5-.4-7.55-1.37-1.3-1.93-3.48-2.76-5.3-.61-1.32-1.14-1.83-2.62-.8-4.77,3.32-9.63,6.53-14.52,9.66-1.84,1.18-2.42,2.42-2,4.71,1,5.54,1.45,11.16,2.24,16.73.32,2.31-.28,3.1-2.79,3.09-19.82-.11-39.64-.06-59.46-.06s-39.44,0-59.16,0c-2.17,0-3.1,0-2.48-2.84,2.9-13.17,6.24-26.25,9.52-39.32,2.59-10.3,10.65-17.06,20.24-21,11.75-4.82,23.89-8.67,35.87-12.92l24.35-8.62c4.91-1.74,9.79-3.54,14.73-5.21,1.92-.65,2.69-1.54,2.84-3.8.56-8.54-.82-16.15-6-23.45a65.41,65.41,0,0,1-10.94-24.81,3.8,3.8,0,0,0-1.74-2.32c-4.36-3.13-7.16-7.62-9.06-12.4-4-10.15-5-20.64-1.69-31.28a12.62,12.62,0,0,1,7.18-8c1.71-.76,1.84-1.68,1.78-3.18-.44-11.07-.9-22.15-.64-33.24.19-8.3,2.66-16,8.51-22a45.27,45.27,0,0,1,17.3-11.15c11.67-4.15,23.74-5.76,36.07-5.94a191.39,191.39,0,0,1,36.33,2.57c5.87,1,10,4.45,12.66,9.65a31.5,31.5,0,0,1,3.44,12.4,6.79,6.79,0,0,0,3.06,5.73c4.74,3.17,7,8.14,8.79,13.28a62.78,62.78,0,0,1,3.12,26.76c-.25,2.52-.2,4.24,2.77,5.56,6.09,2.71,7.26,8.72,7.94,14.56a46.84,46.84,0,0,1-3.64,25.37c-2.06,4.49-4.8,8.81-9.18,11.57a4.25,4.25,0,0,0-1.95,2.84,63.12,63.12,0,0,1-4.09,11.95c-2.39,4.91-5.13,9.66-7.81,14.43a7.69,7.69,0,0,0-1.18,3.95c0,6.25.07,12.49-.08,18.74,0,2,.68,2.76,2.48,3.4,21.8,7.73,43.56,15.58,65.36,23.32,11,3.9,20,10.12,24.84,21.15,2.07,4.72,2.65,9.88,3.66,14.89,1.8,8.8,4.44,17.38,6.58,26.09C382.1,344.43,381.81,345.27,378.88,345.23Z"/><path class="cls-2" d="M287.83,195.49a9.56,9.56,0,0,0,5.46-4.91c4.87-8.66,6.13-18,4.68-27.7-.33-2.25-.89-4.71-3.29-6.61-.56,5.43-1,10.35-1.66,15.22-.14,1,.68,3.09-1.26,3-1.68,0-2.26-1.84-2.55-3.35-.18-1,0-2-.08-3-.53-4.76,1.49-9.83-1.78-14.27a2.1,2.1,0,0,1-.09-1.48c.64-3.14-1-4.14-3.79-4.19s-4.15-1.64-4.15-4.42c0-3.23.09-6.45,0-9.67-.23-5.63-1.83-10.66-6.42-14.4-1.72-1.4-3.11-1.5-5.11-.28C255.52,127,242.12,131.22,228,133.18a321.72,321.72,0,0,1-42.07,2.92c-1.77,0-2.61.37-2.43,2.33.16,1.7,0,3.42,0,5.13,0,2.85-1.13,4.57-4.22,4.73-1.32.07-3.67.19-3.57,1.39.32,3.67-2.52,6.44-2.17,10.09a90.64,90.64,0,0,1,0,11.18c-.05,1.68-.77,3.54-2.58,3.59s-1.08-2-1.23-3.09c-.65-4.79-1.06-9.61-1.61-14.93a10.66,10.66,0,0,0-2.85,5.84A42.09,42.09,0,0,0,167.67,186c1.62,4.2,3.65,8.08,8.18,9.91a3.81,3.81,0,0,1,2.19,2.95c3.4,13.48,9.1,25.77,18.08,36.56,6.23,7.49,13.34,13.64,22.26,17.48a32.08,32.08,0,0,0,24.07.69c13.13-4.62,21.9-14.53,29.56-25.43,5.93-8.43,9.71-18,12.19-28C284.74,198,285.68,196.16,287.83,195.49Z"/><path class="cls-2" d="M270.55,243.5c-1.37-.63-2,1.51-3,2.38-1.89,1.65-3.55,3.58-5.49,5.16-8.23,6.75-17.37,11.5-28.21,12.11-13.88.79-25.28-4.91-35.39-13.87-.78-.69-1.33-1.74-2.8-2,0,5.41.11,10.71-.06,16a4.19,4.19,0,0,0,2.27,4.09c10.15,6.62,20.39,13.13,30.28,20.12,3.57,2.52,6.12,3.43,9.69.23,1.79-1.59,4.21-2.66,6.28-4.05,8.49-5.7,16.95-11.44,25.5-17.05A2.58,2.58,0,0,0,271,264c0-5.53,0-11.07,0-16.6C271,246.06,271.65,244,270.55,243.5Z"/><path class="cls-2" d="M200.2,312.35c8.72-5.21,16.57-10.9,24.77-16.48l-29.24-19.36C197.27,288.84,198.72,300.45,200.2,312.35Z"/><path class="cls-2" d="M269.06,277.56l-27.44,18.22c7.95,6.05,16.22,10.77,24.3,16.57,1.35-11.53,2.62-22.47,3.9-33.41C269.69,278.41,269.63,277.84,269.06,277.56Z"/><path class="cls-3" d="M269.06,277.56c.57.28.63.85.76,1.38,1.08-.34,1.54-1.2.87-2S269.5,277,269.06,277.56Z"/></g></g></svg>