<svg xmlns="http://www.w3.org/2000/svg" viewBox="0 0 405.71 405.85"><defs><style>.cls-1{fill:#2c3690;}</style></defs><title>empresa 2Recurso 1icono de lapiz</title><g id="Capa_2" data-name="Capa 2"><g id="Capa_1-2" data-name="Capa 1"><path class="cls-1" d="M249.26,72.33l85.1,85.18a13.35,13.35,0,0,0-3.36,2Q209.56,280.77,88.26,402.21a11.09,11.09,0,0,1-8.69,3.62q-37.48-.24-75,0C.78,405.88,0,404.8,0,401.14c.17-25.49.11-51,.06-76.45a7.27,7.27,0,0,1,2.09-5.78Q125.63,195.76,249,72.52A.89.89,0,0,1,249.26,72.33Z"/><path class="cls-1" d="M405.71,75.78c-.6,5.56-2.23,10.9-6.46,15.12q-19.61,19.59-39.2,39.2c-1.72,1.73-2.71,2.1-4.68.12q-39.8-40-79.8-79.83c-1.81-1.79-2-2.87-.09-4.77,13-12.85,25.82-26,39-38.71,9.59-9.28,22.66-9.21,32.22.19,17.44,17.17,34.59,34.64,51.87,52A24.25,24.25,0,0,1,405.71,75.78Z"/></g></g></svg>