<svg xmlns="http://www.w3.org/2000/svg" viewBox="0 0 464.27 477.17"><defs><style>.cls-1{fill:#374a9e;}.cls-2{fill:#fefefe;}</style></defs><title>empresa 2Recurso 1</title><g id="Capa_2" data-name="Capa 2"><g id="Capa_1-2" data-name="Capa 1"><path class="cls-1" d="M464.24,236.38a208.23,208.23,0,0,0-1.18-24.68,243.76,243.76,0,0,0-22.17-78.48,248.58,248.58,0,0,0-27.78-44.93c-6.64-8.7-14.39-16.42-22-24.27S374.67,49.7,366.08,43c-12.38-9.65-26.24-17.09-40.43-23.51C295.76,6,264.18-.3,231.3,0c-34.61.33-67.72,6.89-98.74,22.78-13,6.65-25.76,13.54-37.21,22.78-9.07,7.32-18.34,14.34-26.26,23C62.21,76.09,55.18,83.4,49,91.59a246.89,246.89,0,0,0-27,45.35A238.72,238.72,0,0,0,6.5,182.15a246.91,246.91,0,0,0-4.77,85.59,244.13,244.13,0,0,0,22.14,76.54c7.35,15.53,16.62,29.9,26.91,43.62,6.07,8.08,13.16,15.27,20,22.62,8.27,8.84,18.1,16,27.58,23.41,11.51,9,24.5,15.86,37.58,22.2,21.13,10.24,43.65,16.26,67,19.17a227.77,227.77,0,0,0,62.91-.65c23.26-3.54,45.66-9.69,66.62-20.76,13.84-7.31,27.54-14.72,39.64-24.82,8.31-6.92,16.7-13.66,24.22-21.52a245.72,245.72,0,0,0,35.12-46.32,241.21,241.21,0,0,0,20.38-45A235.1,235.1,0,0,0,464.24,236.38Zm-72.45,92.4c.07,3-.6,3.83-3.73,3.82q-103.08-.15-206.18-.07c-35.25,0-70.51,0-105.77.07-2.82,0-3.48-.74-3.44-3.49q.24-17.85,0-35.7a3.56,3.56,0,0,1,2.65-3.92c4.87-1.94,9.73-3.92,14.52-6.07a7.31,7.31,0,0,1,5.76-.32c2.27.78,4.75,1.06,6.93,2,3.22,1.42,3.37-.05,3.36-2.68-.08-18.95,0-37.9-.1-56.86,0-2.15.59-3,2.69-3.72,13.58-4.34,27.12-8.85,40.65-13.36a5.7,5.7,0,0,1,4.8.35c6.63,3.4,13.33,6.66,20,10,3.11,1.55,3.13,1.55,3.13-1.87q0-32.37,0-64.75c0-10.74,0-21.48,0-32.22a4,4,0,0,1,1.95-3.85c12.9-8.63,26.7-15.8,39.63-24.33,5-3.31,8.44-3.73,14.1-1.14,11.6,5.32,23.89,9.14,35.9,13.59,4.62,1.71,9.17,3.65,13.89,5.06,2.8.84,3.37,2.27,3.36,5q-.13,51.48-.06,103v4c8.61-4.26,16.63-8.15,24.56-12.22a6.4,6.4,0,0,1,5.38-.44c13.43,4.49,26.85,9,40.35,13.27,2.31.74,2.74,1.82,2.73,4-.07,18.95,0,37.91-.08,56.86,0,2.59.28,3.8,3.21,2.46,6.73-3.08,13.25-2.69,19.71,1.13,3,1.79,7.56,2.11,9.43,4.59,2,2.66.55,7.11.58,10.77C391.77,310.67,391.58,319.73,391.79,328.78Z"/><path class="cls-2" d="M391.11,290.85c-1.87-2.48-6.39-2.8-9.43-4.59-6.46-3.82-13-4.21-19.71-1.13-2.93,1.34-3.22.13-3.21-2.46.08-18.95,0-37.91.08-56.86,0-2.15-.42-3.23-2.73-4-13.5-4.28-26.92-8.78-40.35-13.27a6.4,6.4,0,0,0-5.38.44c-7.93,4.07-15.95,8-24.56,12.22v-4q0-51.48.06-103c0-2.7-.56-4.13-3.36-5-4.72-1.41-9.27-3.35-13.89-5.06-12-4.45-24.3-8.27-35.9-13.59-5.66-2.59-9.1-2.17-14.1,1.14-12.93,8.53-26.73,15.7-39.63,24.33a4,4,0,0,0-1.95,3.85c0,10.74,0,21.48,0,32.22q0,32.37,0,64.75c0,3.42,0,3.42-3.13,1.87-6.68-3.31-13.38-6.57-20-10a5.7,5.7,0,0,0-4.8-.35c-13.53,4.51-27.07,9-40.65,13.36-2.1.68-2.7,1.57-2.69,3.72.09,19,0,37.91.1,56.86,0,2.63-.14,4.1-3.36,2.68-2.18-1-4.66-1.24-6.93-2a7.31,7.31,0,0,0-5.76.32c-4.79,2.15-9.65,4.13-14.52,6.07a3.56,3.56,0,0,0-2.65,3.92q.21,17.85,0,35.7c0,2.75.62,3.49,3.44,3.49,35.26-.11,70.52-.07,105.77-.07q103.1,0,206.18.07c3.13,0,3.8-.84,3.73-3.82-.21-9,0-18.11-.1-27.16C391.66,298,393.11,293.51,391.11,290.85Z"/><path class="cls-1" d="M145.24,224.84v-3.11c-9.68,2.27-18.06,6.75-27.09,9.34-1.35.39-1.29,1.4-1.29,2.48q0,42.65,0,85.3c0,1.94.58,2.52,2.5,2.5,7.58-.09,15.16-.17,22.74,0,2.71.07,3.23-.8,3.23-3.35Q145.17,271.44,145.24,224.84Z"/><path class="cls-1" d="M347.62,273.49q0-19.58,0-39.14c0-1.65.07-3.11-2-3.66-8-2.08-15.35-6-23.27-8.28-2.38-.7-3-.42-3,2.2.11,15.57.05,31.14.05,46.72s.05,31.35-.05,47c0,2.33.55,3.06,3,3q11.19-.24,22.4,0c2.44.05,2.95-.77,2.94-3.05C347.58,303.38,347.62,288.43,347.62,273.49Z"/><path class="cls-1" d="M272.78,276.89c-5.9-1.71-11.57-4.08-17.34-6.15-7.69-2.76-15.54-5-23.69-7.63,0,19.11,0,37.63,0,56.15,0,1.75.68,2.08,2.22,2.07q19.26-.06,38.52,0c1.81,0,2.3-.59,2.29-2.35q-.09-19.74,0-39.48A2.3,2.3,0,0,0,272.78,276.89Z"/><path class="cls-1" d="M308.25,250.37V222.51c-7,3.21-12.9,7.49-19.54,10.28-1.23.52-1.27,1.48-1.27,2.58q0,41.81,0,83.61c0,1.78.52,2.4,2.32,2.36,5.15-.09,10.31-.17,15.46,0,2.53.1,3.12-.72,3.11-3.16C308.21,295.6,308.25,273,308.25,250.37Z"/><path class="cls-1" d="M172,230.79c-5.42-1.88-9.68-6.12-15.2-7.85-.1.21-.19.3-.19.39q0,48-.12,96c0,1.83.84,2,2.3,2,4.95-.05,9.9-.19,14.83.05,2.77.12,3.53-.63,3.51-3.47-.11-26.21-.2-52.42.07-78.63C177.25,234.84,176.19,232.24,172,230.79Z"/><path class="cls-1" d="M220.75,293.15q0-12.61,0-25.24c0-3.38-.05-3.45-3.1-1.76-4.36,2.42-8.86,4.55-13.09,7.27-4.48,2.88-9.45,5-14.23,7.4a3.24,3.24,0,0,0-2.17,3.33c.11,11.56.09,23.13,0,34.7,0,1.93.56,2.52,2.49,2.5,9.15-.09,18.29-.12,27.44,0,2.4,0,2.71-1,2.69-3C220.71,310,220.75,301.56,220.75,293.15Z"/><path class="cls-1" d="M272.41,234.9c-4.12-1.2-8.14-2.74-12.27-3.91-9.52-2.72-18.41-7.32-28.39-9.54,0,9.61,0,19.15,0,28.69,0,1.59,1.12,1.59,2,1.89,12.85,4.17,25.73,8.29,38.57,12.5,2.12.69,2.46,0,2.44-2q-.13-12.31,0-24.62C274.78,236.11,274.09,235.39,272.41,234.9Z"/><path class="cls-1" d="M233.63,168.3c4.7,1.49,9.4,3,14.06,4.56,8.85,3,18,5.24,27,9.36,0-9.85-.05-19.21,0-28.57,0-2-1.41-2.1-2.62-2.5q-9.7-3.19-19.44-6.31c-6.87-2.19-13.75-4.35-20.95-6.62,0,9.6,0,18.85,0,28.09C231.72,167.75,232.58,168,233.63,168.3Z"/><path class="cls-1" d="M233.94,210.28c12.77,4.11,25.58,8.14,38.33,12.35,2,.67,2.51.45,2.48-1.69q-.12-12.48,0-24.95c0-1.64-.46-2.33-2.09-2.83-8.52-2.63-17-5.43-25.46-8.19-5.1-1.66-10.32-3-15.45-5.71,0,10,0,19.45,0,28.91C231.71,209.88,232.91,210,233.94,210.28Z"/><path class="cls-1" d="M233.42,126.47c13.24,3.82,26.1,8.76,39.13,13.22,1.47.5,2.25.59,2.21-1.43-.11-5.78-.1-11.56,0-17.35a2.43,2.43,0,0,0-2-2.69c-6.83-2.24-13.33-5.28-20-8-6.86-2.78-13.88-5.15-21.06-7.79,0,7.51,0,14.65,0,21.8A2,2,0,0,0,233.42,126.47Z"/><path class="cls-1" d="M218.69,140.74c-9.6,5-19.22,9.88-28.84,14.82a2.44,2.44,0,0,0-1.67,2.36c.06,9.12,0,18.24,0,27.39a5.59,5.59,0,0,0,3.11-1.12c4.9-2.73,9.77-5.54,14.71-8.2,4.25-2.29,8.57-4.45,12.88-6.62,1.1-.55,1.88-1.08,1.87-2.53-.06-8.31,0-16.62,0-24.93C220.77,140.15,220.17,140,218.69,140.74Z"/><path class="cls-1" d="M218.71,223.73c-3.38,1.46-6.13,3.93-9.39,5.57-6.37,3.22-12.69,6.54-19.07,9.74a3,3,0,0,0-2.08,3.07c.09,8.73,0,17.47,0,26.74,10.77-5.54,21-10.82,31.28-16.08a2.26,2.26,0,0,0,1.27-2.3c0-8.52,0-17.05,0-25.58C220.78,223,220.14,223.12,218.71,223.73Z"/><path class="cls-1" d="M220.78,184.07c0-2-.44-2.4-2.3-1.43q-14.34,7.5-28.77,14.86c-.88.45-1.53.87-1.52,2.06.05,9.1,0,18.2,0,27.45,10.22-5.27,20.14-10.41,30.1-15.49,1.5-.77,2.51-1.51,2.48-3.49C220.69,200.05,220.72,192.06,220.78,184.07Z"/><path class="cls-1" d="M220.78,106.42c.08-2.3-.55-2.41-2.46-1.37-6.7,3.65-12.72,8.36-19.32,12.18-3.08,1.78-6.12,3.65-9.21,5.43a2.75,2.75,0,0,0-1.61,2.72c.08,5.36.1,10.72,0,16.08,0,2.11.51,2.21,2.3,1.37,7.07-3.36,13.44-8.12,20.62-11.1,7.63-3.17,12.27-7.27,9.65-14.67C220.75,112.52,220.67,109.47,220.78,106.42Z"/><path class="cls-1" d="M102.56,297.26a14.74,14.74,0,0,1-5.68-1.71c-2.3-1.42-4-1.85-6.31.08-1.79,1.47-4.29,2.07-6.43,3.14-.22.11-.21.78-.21,1.2,0,6.51,0,13,0,19.55,0,1.38.51,1.82,1.84,1.81,6-.05,12-.06,18,0,1.67,0,2.2-.6,2.16-2.22-.08-3.15,0-6.3,0-9.46,0-2.63-.17-5.27,0-7.88S105.4,297.65,102.56,297.26Z"/><path class="cls-1" d="M375,296.22a2.66,2.66,0,0,1-1.59-.92,3,3,0,0,0-4.22-.57c-2.43,1.64-5.21,2-7.87,2.75-2,.54-2.68,1.47-2.57,3.48.15,2.83,0,5.68,0,8.51,0,3.16.08,6.31,0,9.46-.06,1.71.39,2.45,2.26,2.42,5.77-.1,11.56-.12,17.33,0,2,0,2.47-.73,2.43-2.58a127.58,127.58,0,0,1,0-13.55C381.23,300.49,380.39,297,375,296.22Z"/></g></g></svg>