<svg xmlns="http://www.w3.org/2000/svg" xmlns:xlink="http://www.w3.org/1999/xlink" width="500" zoomAndPan="magnify" viewBox="0 0 375 299.999988" height="400" preserveAspectRatio="xMidYMid meet" version="1.0"><defs><clipPath id="e7b3225e61"><path d="M 6.328125 47 L 368.578125 47 L 368.578125 275.265625 L 6.328125 275.265625 Z M 6.328125 47 " clip-rule="nonzero"/></clipPath><clipPath id="0757d8908b"><path d="M 162.875 108.457031 L 252.875 108.457031 L 252.875 198.457031 L 162.875 198.457031 Z M 162.875 108.457031 " clip-rule="nonzero"/></clipPath><clipPath id="3228b9c385"><path d="M 207.875 108.457031 C 183.019531 108.457031 162.875 128.605469 162.875 153.457031 C 162.875 178.308594 183.019531 198.457031 207.875 198.457031 C 232.726562 198.457031 252.875 178.308594 252.875 153.457031 C 252.875 128.605469 232.726562 108.457031 207.875 108.457031 Z M 207.875 108.457031 " clip-rule="nonzero"/></clipPath><clipPath id="3e5a981c27"><path d="M 28 6 L 347 6 L 347 294 L 28 294 Z M 28 6 " clip-rule="nonzero"/></clipPath><clipPath id="f119a615f9"><path d="M 23.296875 280.941406 L 335.882812 1.234375 L 351.773438 18.992188 L 39.1875 298.703125 Z M 23.296875 280.941406 " clip-rule="nonzero"/></clipPath><clipPath id="f2bba02bb5"><path d="M 32.175781 272.996094 L 326.9375 9.238281 C 331.839844 4.851562 339.375 5.269531 343.761719 10.171875 C 348.148438 15.078125 347.730469 22.609375 342.828125 26.996094 L 48.066406 290.757812 C 43.164062 295.144531 35.628906 294.726562 31.242188 289.820312 C 26.851562 284.917969 27.269531 277.386719 32.175781 272.996094 Z M 32.175781 272.996094 " clip-rule="nonzero"/></clipPath></defs><path fill="#ffffff" d="M 355.371094 161.199219 C 355.371094 162.855469 355.304688 164.507812 355.167969 166.164062 C 355.035156 167.816406 354.832031 169.464844 354.5625 171.113281 C 354.292969 172.757812 353.957031 174.402344 353.554688 176.039062 C 353.152344 177.675781 352.683594 179.304688 352.144531 180.929688 C 351.609375 182.550781 351.007812 184.164062 350.339844 185.769531 C 349.671875 187.375 348.941406 188.972656 348.144531 190.554688 C 347.34375 192.136719 346.484375 193.710938 345.558594 195.265625 C 344.632812 196.824219 343.644531 198.367188 342.59375 199.898438 C 341.542969 201.425781 340.429688 202.9375 339.253906 204.433594 C 338.078125 205.929688 336.84375 207.410156 335.550781 208.867188 C 334.253906 210.328125 332.902344 211.769531 331.488281 213.1875 C 330.078125 214.605469 328.609375 216.003906 327.082031 217.378906 C 325.554688 218.757812 323.972656 220.109375 322.335938 221.4375 C 320.699219 222.765625 319.011719 224.070312 317.269531 225.351562 C 315.523438 226.628906 313.730469 227.882812 311.886719 229.109375 C 310.042969 230.335938 308.148438 231.535156 306.207031 232.703125 C 304.261719 233.875 302.273438 235.015625 300.238281 236.125 C 298.203125 237.238281 296.121094 238.316406 294 239.367188 C 291.875 240.417969 289.710938 241.4375 287.503906 242.421875 C 285.296875 243.40625 283.050781 244.359375 280.769531 245.28125 C 278.484375 246.199219 276.164062 247.082031 273.808594 247.933594 C 271.449219 248.785156 269.0625 249.601562 266.636719 250.382812 C 264.214844 251.160156 261.761719 251.90625 259.277344 252.613281 C 256.796875 253.320312 254.285156 253.992188 251.746094 254.625 C 249.207031 255.257812 246.644531 255.851562 244.058594 256.410156 C 241.472656 256.96875 238.867188 257.488281 236.238281 257.96875 C 233.609375 258.449219 230.960938 258.890625 228.296875 259.289062 C 225.628906 259.691406 222.949219 260.054688 220.257812 260.378906 C 217.5625 260.699219 214.855469 260.984375 212.140625 261.226562 C 209.421875 261.46875 206.695312 261.671875 203.960938 261.835938 C 201.226562 261.996094 198.488281 262.117188 195.746094 262.199219 C 193 262.28125 190.253906 262.320312 187.507812 262.320312 C 184.761719 262.320312 182.015625 262.28125 179.273438 262.199219 C 176.527344 262.117188 173.789062 261.996094 171.054688 261.835938 C 168.320312 261.671875 165.59375 261.46875 162.878906 261.226562 C 160.160156 260.984375 157.453125 260.699219 154.761719 260.378906 C 152.066406 260.054688 149.386719 259.691406 146.722656 259.289062 C 144.054688 258.890625 141.410156 258.449219 138.78125 257.96875 C 136.152344 257.488281 133.542969 256.96875 130.957031 256.410156 C 128.371094 255.851562 125.808594 255.257812 123.269531 254.625 C 120.730469 253.992188 118.222656 253.320312 115.738281 252.613281 C 113.253906 251.90625 110.800781 251.160156 108.378906 250.382812 C 105.957031 249.601562 103.566406 248.785156 101.210938 247.933594 C 98.851562 247.082031 96.53125 246.199219 94.25 245.28125 C 91.964844 244.359375 89.71875 243.40625 87.511719 242.421875 C 85.304688 241.4375 83.140625 240.417969 81.015625 239.367188 C 78.894531 238.316406 76.8125 237.238281 74.777344 236.125 C 72.742188 235.015625 70.753906 233.875 68.8125 232.703125 C 66.867188 231.535156 64.976562 230.335938 63.128906 229.109375 C 61.285156 227.882812 59.492188 226.628906 57.75 225.351562 C 56.003906 224.070312 54.316406 222.765625 52.679688 221.4375 C 51.042969 220.109375 49.460938 218.757812 47.933594 217.378906 C 46.410156 216.003906 44.941406 214.605469 43.527344 213.1875 C 42.117188 211.769531 40.761719 210.328125 39.464844 208.867188 C 38.171875 207.410156 36.9375 205.929688 35.761719 204.433594 C 34.585938 202.9375 33.476562 201.425781 32.421875 199.898438 C 31.371094 198.367188 30.382812 196.824219 29.457031 195.265625 C 28.53125 193.710938 27.671875 192.136719 26.875 190.554688 C 26.078125 188.972656 25.34375 187.375 24.675781 185.769531 C 24.007812 184.164062 23.40625 182.550781 22.871094 180.929688 C 22.335938 179.304688 21.867188 177.675781 21.460938 176.039062 C 21.058594 174.402344 20.722656 172.757812 20.453125 171.113281 C 20.183594 169.464844 19.984375 167.816406 19.847656 166.164062 C 19.714844 164.507812 19.644531 162.855469 19.644531 161.199219 C 19.644531 159.546875 19.714844 157.890625 19.847656 156.238281 C 19.984375 154.585938 20.183594 152.9375 20.453125 151.289062 C 20.722656 149.640625 21.058594 148 21.460938 146.363281 C 21.867188 144.726562 22.335938 143.097656 22.871094 141.472656 C 23.40625 139.851562 24.007812 138.234375 24.675781 136.628906 C 25.34375 135.023438 26.078125 133.429688 26.875 131.847656 C 27.671875 130.261719 28.53125 128.691406 29.457031 127.132812 C 30.382812 125.578125 31.371094 124.03125 32.421875 122.503906 C 33.476562 120.976562 34.585938 119.460938 35.761719 117.964844 C 36.9375 116.46875 38.171875 114.992188 39.464844 113.53125 C 40.761719 112.074219 42.117188 110.632812 43.527344 109.214844 C 44.941406 107.796875 46.410156 106.398438 47.933594 105.019531 C 49.460938 103.644531 51.042969 102.292969 52.679688 100.964844 C 54.316406 99.632812 56.003906 98.328125 57.75 97.050781 C 59.492188 95.769531 61.285156 94.519531 63.128906 93.292969 C 64.976562 92.066406 66.867188 90.867188 68.8125 89.699219 C 70.753906 88.527344 72.742188 87.386719 74.777344 86.277344 C 76.8125 85.164062 78.894531 84.082031 81.015625 83.035156 C 83.140625 81.984375 85.304688 80.964844 87.511719 79.980469 C 89.71875 78.996094 91.964844 78.042969 94.25 77.121094 C 96.53125 76.203125 98.851562 75.316406 101.210938 74.46875 C 103.566406 73.617188 105.957031 72.800781 108.378906 72.019531 C 110.800781 71.242188 113.253906 70.496094 115.738281 69.789062 C 118.222656 69.082031 120.730469 68.410156 123.269531 67.777344 C 125.808594 67.144531 128.371094 66.550781 130.957031 65.992188 C 133.542969 65.433594 136.152344 64.914062 138.78125 64.433594 C 141.410156 63.953125 144.054688 63.511719 146.722656 63.109375 C 149.386719 62.707031 152.066406 62.347656 154.761719 62.023438 C 157.453125 61.699219 160.160156 61.417969 162.878906 61.175781 C 165.59375 60.933594 168.320312 60.730469 171.054688 60.566406 C 173.789062 60.40625 176.527344 60.285156 179.273438 60.203125 C 182.015625 60.121094 184.761719 60.082031 187.507812 60.082031 C 190.253906 60.082031 193 60.121094 195.746094 60.203125 C 198.488281 60.285156 201.226562 60.40625 203.960938 60.566406 C 206.695312 60.730469 209.421875 60.933594 212.140625 61.175781 C 214.855469 61.417969 217.5625 61.699219 220.257812 62.023438 C 222.949219 62.347656 225.628906 62.707031 228.296875 63.109375 C 230.960938 63.511719 233.609375 63.953125 236.238281 64.433594 C 238.867188 64.914062 241.472656 65.433594 244.058594 65.992188 C 246.644531 66.550781 249.207031 67.144531 251.746094 67.777344 C 254.285156 68.410156 256.796875 69.082031 259.277344 69.789062 C 261.761719 70.496094 264.214844 71.242188 266.636719 72.019531 C 269.0625 72.800781 271.449219 73.617188 273.808594 74.46875 C 276.164062 75.316406 278.484375 76.203125 280.769531 77.121094 C 283.050781 78.042969 285.296875 78.996094 287.503906 79.980469 C 289.710938 80.964844 291.875 81.984375 294 83.035156 C 296.121094 84.082031 298.203125 85.164062 300.238281 86.277344 C 302.273438 87.386719 304.261719 88.527344 306.207031 89.699219 C 308.148438 90.867188 310.042969 92.066406 311.886719 93.292969 C 313.730469 94.519531 315.523438 95.769531 317.269531 97.050781 C 319.011719 98.328125 320.699219 99.632812 322.335938 100.964844 C 323.972656 102.292969 325.554688 103.644531 327.082031 105.019531 C 328.609375 106.398438 330.078125 107.796875 331.488281 109.214844 C 332.902344 110.632812 334.253906 112.074219 335.550781 113.53125 C 336.84375 114.992188 338.078125 116.46875 339.253906 117.964844 C 340.429688 119.460938 341.542969 120.976562 342.59375 122.503906 C 343.644531 124.03125 344.632812 125.578125 345.558594 127.132812 C 346.484375 128.691406 347.34375 130.261719 348.144531 131.847656 C 348.941406 133.429688 349.671875 135.023438 350.339844 136.628906 C 351.007812 138.234375 351.609375 139.851562 352.144531 141.472656 C 352.683594 143.097656 353.152344 144.726562 353.554688 146.363281 C 353.957031 148 354.292969 149.640625 354.5625 151.289062 C 354.832031 152.9375 355.035156 154.585938 355.167969 156.238281 C 355.304688 157.890625 355.371094 159.546875 355.371094 161.199219 Z M 355.371094 161.199219 " fill-opacity="1" fill-rule="nonzero"/><g clip-path="url(#e7b3225e61)"><path fill="#231f20" d="M 187.496094 275.277344 C 102.832031 275.277344 28.746094 230.050781 7.34375 165.265625 C 6.914062 163.945312 6.699219 162.589844 6.699219 161.199219 C 6.699219 159.8125 6.914062 158.457031 7.34375 157.136719 C 28.746094 92.453125 102.832031 47.136719 187.496094 47.136719 C 272.15625 47.136719 346.253906 92.453125 367.644531 157.136719 C 368.074219 158.457031 368.292969 159.8125 368.292969 161.199219 C 368.292969 162.589844 368.074219 163.945312 367.644531 165.265625 C 346.253906 230.050781 272.167969 275.277344 187.496094 275.277344 Z M 33.375 161.199219 C 53.109375 213.324219 115.6875 249.378906 187.496094 249.378906 C 259.300781 249.378906 321.964844 213.324219 341.625 161.199219 C 321.910156 109.089844 259.300781 73.039062 187.496094 73.039062 C 115.6875 73.039062 53.09375 109.089844 33.375 161.199219 Z M 33.375 161.199219 " fill-opacity="1" fill-rule="nonzero"/></g><path fill="#231f20" d="M 247.847656 85.09375 C 248.835938 86.082031 249.800781 87.09375 250.738281 88.128906 C 251.675781 89.164062 252.585938 90.222656 253.472656 91.300781 C 254.359375 92.382812 255.21875 93.484375 256.050781 94.605469 C 256.882812 95.726562 257.6875 96.867188 258.460938 98.03125 C 259.238281 99.191406 259.984375 100.371094 260.703125 101.570312 C 261.421875 102.769531 262.109375 103.984375 262.765625 105.21875 C 263.425781 106.449219 264.054688 107.695312 264.652344 108.960938 C 265.246094 110.222656 265.8125 111.5 266.347656 112.789062 C 266.882812 114.082031 267.386719 115.386719 267.855469 116.699219 C 268.328125 118.015625 268.765625 119.34375 269.167969 120.679688 C 269.574219 122.015625 269.949219 123.363281 270.285156 124.71875 C 270.625 126.074219 270.933594 127.4375 271.203125 128.804688 C 271.476562 130.175781 271.714844 131.554688 271.921875 132.933594 C 272.125 134.316406 272.296875 135.703125 272.433594 137.09375 C 272.570312 138.484375 272.671875 139.878906 272.742188 141.273438 C 272.808594 142.667969 272.84375 144.066406 272.84375 145.460938 C 272.84375 146.859375 272.808594 148.253906 272.742188 149.652344 C 272.671875 151.046875 272.570312 152.441406 272.433594 153.828125 C 272.296875 155.21875 272.125 156.605469 271.921875 157.988281 C 271.714844 159.371094 271.476562 160.746094 271.203125 162.117188 C 270.933594 163.488281 270.625 164.851562 270.285156 166.207031 C 269.949219 167.5625 269.574219 168.90625 269.167969 170.246094 C 268.765625 171.582031 268.328125 172.90625 267.855469 174.222656 C 267.386719 175.539062 266.882812 176.84375 266.347656 178.132812 C 265.8125 179.425781 265.246094 180.699219 264.652344 181.964844 C 264.054688 183.226562 263.425781 184.476562 262.765625 185.707031 C 262.109375 186.9375 261.421875 188.15625 260.703125 189.351562 C 259.984375 190.550781 259.238281 191.730469 258.460938 192.894531 C 257.6875 194.054688 256.882812 195.195312 256.050781 196.320312 C 255.21875 197.441406 254.359375 198.542969 253.472656 199.621094 C 252.585938 200.703125 251.675781 201.761719 250.738281 202.796875 C 249.800781 203.832031 248.835938 204.84375 247.847656 205.832031 C 246.859375 206.816406 245.851562 207.78125 244.816406 208.71875 C 243.78125 209.65625 242.722656 210.570312 241.644531 211.457031 C 240.5625 212.34375 239.464844 213.203125 238.339844 214.035156 C 237.21875 214.867188 236.078125 215.671875 234.917969 216.449219 C 233.753906 217.222656 232.574219 217.972656 231.378906 218.691406 C 230.179688 219.40625 228.964844 220.097656 227.734375 220.753906 C 226.5 221.414062 225.253906 222.042969 223.992188 222.640625 C 222.730469 223.238281 221.453125 223.800781 220.164062 224.335938 C 218.871094 224.871094 217.570312 225.375 216.253906 225.84375 C 214.941406 226.316406 213.613281 226.753906 212.277344 227.160156 C 210.941406 227.566406 209.59375 227.9375 208.242188 228.277344 C 206.886719 228.617188 205.523438 228.921875 204.152344 229.195312 C 202.785156 229.46875 201.40625 229.707031 200.027344 229.910156 C 198.644531 230.117188 197.257812 230.289062 195.871094 230.425781 C 194.480469 230.5625 193.085938 230.664062 191.691406 230.734375 C 190.296875 230.800781 188.902344 230.835938 187.503906 230.835938 C 186.109375 230.835938 184.710938 230.800781 183.316406 230.734375 C 181.921875 230.664062 180.53125 230.5625 179.140625 230.425781 C 177.75 230.289062 176.363281 230.117188 174.984375 229.910156 C 173.601562 229.707031 172.226562 229.46875 170.855469 229.195312 C 169.484375 228.921875 168.125 228.617188 166.769531 228.277344 C 165.414062 227.9375 164.066406 227.566406 162.730469 227.160156 C 161.394531 226.753906 160.070312 226.316406 158.753906 225.84375 C 157.4375 225.375 156.136719 224.871094 154.847656 224.335938 C 153.554688 223.800781 152.28125 223.238281 151.015625 222.640625 C 149.753906 222.042969 148.507812 221.414062 147.277344 220.753906 C 146.042969 220.097656 144.828125 219.40625 143.632812 218.691406 C 142.433594 217.972656 141.253906 217.222656 140.09375 216.449219 C 138.929688 215.671875 137.789062 214.867188 136.667969 214.035156 C 135.546875 213.203125 134.445312 212.34375 133.367188 211.457031 C 132.285156 210.570312 131.230469 209.65625 130.195312 208.71875 C 129.160156 207.78125 128.148438 206.816406 127.160156 205.832031 C 126.171875 204.84375 125.210938 203.832031 124.273438 202.796875 C 123.332031 201.761719 122.421875 200.703125 121.535156 199.621094 C 120.648438 198.542969 119.789062 197.441406 118.957031 196.320312 C 118.125 195.195312 117.324219 194.054688 116.546875 192.894531 C 115.769531 191.730469 115.023438 190.550781 114.304688 189.351562 C 113.589844 188.15625 112.898438 186.9375 112.242188 185.707031 C 111.582031 184.476562 110.957031 183.226562 110.359375 181.964844 C 109.761719 180.699219 109.195312 179.425781 108.660156 178.132812 C 108.125 176.84375 107.625 175.539062 107.152344 174.222656 C 106.683594 172.90625 106.246094 171.582031 105.839844 170.246094 C 105.433594 168.90625 105.0625 167.5625 104.722656 166.207031 C 104.382812 164.851562 104.078125 163.488281 103.804688 162.117188 C 103.53125 160.746094 103.292969 159.371094 103.089844 157.988281 C 102.882812 156.605469 102.710938 155.21875 102.574219 153.828125 C 102.4375 152.441406 102.335938 151.046875 102.265625 149.652344 C 102.199219 148.253906 102.164062 146.859375 102.164062 145.460938 C 102.164062 144.066406 102.199219 142.667969 102.265625 141.273438 C 102.335938 139.878906 102.4375 138.484375 102.574219 137.09375 C 102.710938 135.703125 102.882812 134.316406 103.089844 132.933594 C 103.292969 131.554688 103.53125 130.175781 103.804688 128.804688 C 104.078125 127.4375 104.382812 126.074219 104.722656 124.71875 C 105.0625 123.363281 105.433594 122.015625 105.839844 120.679688 C 106.246094 119.34375 106.683594 118.015625 107.152344 116.699219 C 107.625 115.382812 108.125 114.082031 108.660156 112.789062 C 109.195312 111.5 109.761719 110.222656 110.359375 108.960938 C 110.957031 107.695312 111.582031 106.449219 112.242188 105.21875 C 112.898438 103.984375 113.589844 102.769531 114.304688 101.570312 C 115.023438 100.371094 115.769531 99.191406 116.546875 98.03125 C 117.324219 96.867188 118.125 95.726562 118.957031 94.605469 C 119.789062 93.484375 120.648438 92.382812 121.535156 91.300781 C 122.421875 90.222656 123.332031 89.164062 124.273438 88.128906 C 125.210938 87.09375 126.171875 86.082031 127.160156 85.09375 C 128.148438 84.105469 129.160156 83.140625 130.195312 82.203125 C 131.230469 81.265625 132.285156 80.351562 133.367188 79.46875 C 134.445312 78.582031 135.546875 77.722656 136.667969 76.890625 C 137.789062 76.054688 138.929688 75.253906 140.09375 74.476562 C 141.253906 73.699219 142.433594 72.953125 143.632812 72.234375 C 144.828125 71.515625 146.042969 70.828125 147.277344 70.167969 C 148.507812 69.511719 149.753906 68.882812 151.015625 68.285156 C 152.28125 67.6875 153.554688 67.121094 154.847656 66.585938 C 156.136719 66.050781 157.4375 65.550781 158.753906 65.078125 C 160.070312 64.609375 161.394531 64.167969 162.730469 63.765625 C 164.066406 63.359375 165.414062 62.984375 166.769531 62.648438 C 168.125 62.308594 169.484375 62 170.855469 61.726562 C 172.226562 61.457031 173.601562 61.21875 174.984375 61.011719 C 176.363281 60.808594 177.75 60.636719 179.140625 60.5 C 180.53125 60.363281 181.921875 60.257812 183.316406 60.191406 C 184.710938 60.121094 186.109375 60.089844 187.503906 60.089844 C 188.902344 60.089844 190.296875 60.121094 191.691406 60.191406 C 193.085938 60.257812 194.480469 60.363281 195.871094 60.5 C 197.257812 60.636719 198.644531 60.808594 200.027344 61.011719 C 201.40625 61.21875 202.785156 61.457031 204.152344 61.726562 C 205.523438 62 206.886719 62.308594 208.242188 62.648438 C 209.59375 62.984375 210.941406 63.359375 212.277344 63.765625 C 213.613281 64.167969 214.941406 64.609375 216.253906 65.078125 C 217.570312 65.550781 218.871094 66.050781 220.164062 66.585938 C 221.453125 67.121094 222.730469 67.6875 223.992188 68.285156 C 225.253906 68.882812 226.5 69.511719 227.734375 70.167969 C 228.964844 70.828125 230.179688 71.515625 231.378906 72.234375 C 232.574219 72.953125 233.753906 73.699219 234.917969 74.476562 C 236.078125 75.253906 237.21875 76.054688 238.339844 76.890625 C 239.464844 77.722656 240.5625 78.582031 241.644531 79.46875 C 242.722656 80.351562 243.78125 81.265625 244.816406 82.203125 C 245.851562 83.140625 246.859375 84.105469 247.847656 85.09375 Z M 247.847656 85.09375 " fill-opacity="1" fill-rule="nonzero"/><path fill="#ffffff" d="M 146.160156 121.496094 C 146.160156 122.28125 146.125 123.0625 146.046875 123.84375 C 145.96875 124.625 145.855469 125.402344 145.703125 126.171875 C 145.546875 126.941406 145.359375 127.703125 145.128906 128.453125 C 144.902344 129.207031 144.636719 129.945312 144.335938 130.667969 C 144.039062 131.394531 143.703125 132.101562 143.332031 132.796875 C 142.960938 133.488281 142.558594 134.160156 142.125 134.8125 C 141.6875 135.464844 141.21875 136.097656 140.722656 136.703125 C 140.222656 137.308594 139.699219 137.890625 139.144531 138.445312 C 138.589844 139 138.007812 139.527344 137.402344 140.027344 C 136.792969 140.523438 136.164062 140.992188 135.511719 141.429688 C 134.859375 141.863281 134.1875 142.265625 133.496094 142.636719 C 132.800781 143.007812 132.09375 143.34375 131.367188 143.644531 C 130.644531 143.945312 129.90625 144.207031 129.152344 144.4375 C 128.402344 144.664062 127.644531 144.855469 126.871094 145.007812 C 126.101562 145.160156 125.328125 145.277344 124.546875 145.351562 C 123.765625 145.429688 122.984375 145.46875 122.199219 145.46875 C 121.414062 145.46875 120.628906 145.429688 119.847656 145.351562 C 119.066406 145.277344 118.292969 145.160156 117.523438 145.007812 C 116.753906 144.855469 115.992188 144.664062 115.242188 144.4375 C 114.488281 144.207031 113.753906 143.945312 113.027344 143.644531 C 112.300781 143.34375 111.59375 143.007812 110.902344 142.636719 C 110.207031 142.265625 109.535156 141.863281 108.882812 141.429688 C 108.230469 140.992188 107.601562 140.523438 106.996094 140.027344 C 106.386719 139.527344 105.808594 139 105.253906 138.445312 C 104.699219 137.890625 104.171875 137.308594 103.671875 136.703125 C 103.175781 136.097656 102.707031 135.464844 102.273438 134.8125 C 101.835938 134.160156 101.433594 133.488281 101.0625 132.796875 C 100.691406 132.101562 100.359375 131.394531 100.058594 130.667969 C 99.757812 129.945312 99.492188 129.207031 99.265625 128.453125 C 99.039062 127.703125 98.847656 126.941406 98.695312 126.171875 C 98.539062 125.402344 98.425781 124.625 98.347656 123.84375 C 98.273438 123.0625 98.234375 122.28125 98.234375 121.496094 C 98.234375 120.710938 98.273438 119.925781 98.347656 119.144531 C 98.425781 118.363281 98.539062 117.585938 98.695312 116.816406 C 98.847656 116.046875 99.039062 115.285156 99.265625 114.535156 C 99.492188 113.785156 99.757812 113.046875 100.058594 112.320312 C 100.359375 111.59375 100.691406 110.886719 101.0625 110.195312 C 101.433594 109.5 101.835938 108.828125 102.273438 108.175781 C 102.707031 107.523438 103.175781 106.894531 103.671875 106.285156 C 104.171875 105.679688 104.699219 105.097656 105.253906 104.542969 C 105.808594 103.988281 106.386719 103.460938 106.996094 102.960938 C 107.601562 102.464844 108.230469 101.996094 108.882812 101.5625 C 109.535156 101.125 110.207031 100.722656 110.902344 100.351562 C 111.59375 99.980469 112.300781 99.644531 113.027344 99.347656 C 113.753906 99.046875 114.488281 98.78125 115.242188 98.554688 C 115.992188 98.324219 116.753906 98.132812 117.523438 97.980469 C 118.292969 97.828125 119.066406 97.714844 119.847656 97.636719 C 120.628906 97.558594 121.414062 97.519531 122.199219 97.519531 C 122.984375 97.519531 123.765625 97.558594 124.546875 97.636719 C 125.328125 97.714844 126.101562 97.828125 126.871094 97.980469 C 127.644531 98.132812 128.402344 98.324219 129.152344 98.554688 C 129.90625 98.78125 130.644531 99.046875 131.367188 99.347656 C 132.09375 99.644531 132.800781 99.980469 133.496094 100.351562 C 134.1875 100.722656 134.859375 101.125 135.511719 101.5625 C 136.164062 101.996094 136.792969 102.464844 137.402344 102.960938 C 138.007812 103.460938 138.589844 103.988281 139.144531 104.542969 C 139.699219 105.097656 140.222656 105.679688 140.722656 106.285156 C 141.21875 106.894531 141.6875 107.523438 142.125 108.175781 C 142.558594 108.828125 142.960938 109.5 143.332031 110.195312 C 143.703125 110.886719 144.039062 111.59375 144.335938 112.320312 C 144.636719 113.046875 144.902344 113.785156 145.128906 114.535156 C 145.359375 115.285156 145.546875 116.046875 145.703125 116.816406 C 145.855469 117.585938 145.96875 118.363281 146.046875 119.144531 C 146.125 119.925781 146.160156 120.710938 146.160156 121.496094 Z M 146.160156 121.496094 " fill-opacity="1" fill-rule="nonzero"/><g clip-path="url(#0757d8908b)"><g clip-path="url(#3228b9c385)"><path fill="#231f20" d="M 162.875 108.457031 L 252.875 108.457031 L 252.875 198.457031 L 162.875 198.457031 Z M 162.875 108.457031 " fill-opacity="1" fill-rule="nonzero"/></g></g><g clip-path="url(#3e5a981c27)"><g clip-path="url(#f119a615f9)"><g clip-path="url(#f2bba02bb5)"><path fill="#231f20" d="M 23.296875 280.941406 L 335.8125 1.296875 L 351.703125 19.054688 L 39.1875 298.703125 Z M 23.296875 280.941406 " fill-opacity="1" fill-rule="nonzero"/></g></g></g></svg>