<svg xmlns="http://www.w3.org/2000/svg" viewBox="0 0 475.77 475.77"><defs><style>.cls-1{fill:#2c3690;}</style></defs><title>mensaje Recurso 1UBICACION</title><g id="Capa_2" data-name="Capa 2"><g id="Capa_1-2" data-name="Capa 1"><path class="cls-1" d="M238.08,0C106.86-.12.33,106.1,0,237.4S106.2,475.58,237.65,475.77c131,.19,237.8-106.32,238.12-237.44C476.09,107.05,369.45.12,238.08,0ZM349,134.17c-10,8.07-19.32,15.54-28.61,23-26.26,21-52.56,42-78.72,63.14-2.9,2.35-4.6,2.3-7.47,0q-51-41-102.21-81.79c-1.49-1.2-3.3-2.13-4.28-4.32Zm15.73,22.28V325.83c0,12.08-3.74,15.86-15.7,15.87H126.16c-11,0-15.2-4.08-15.21-14.93V151.26l91.25,72.89c8.71,7,17.4,14,26.13,20.9,7.06,5.61,12.18,5.59,19.27-.1q57.86-46.39,115.67-92.8a7.65,7.65,0,0,1,1.42-.6Z"/></g></g></svg>