<svg xmlns="http://www.w3.org/2000/svg" viewBox="0 0 461.55 461.58"><defs><style>.cls-1{fill:#2c3690;}</style></defs><title>ICONORecurso 1UBICACION</title><g id="Capa_2" data-name="Capa 2"><g id="Capa_1-2" data-name="Capa 1"><path class="cls-1" d="M238.46.11C106.38-3.89,3.88,100.31.11,223-4,356.79,103.29,461.67,230.85,461.58s230.64-103.29,230.7-230.73C461.28,103.78,360.36,3.81,238.46.11Zm89.15,250.11c-11.29,32.24-30.15,59.89-52.51,85.36A303.53,303.53,0,0,1,237,372.21c-4.8,3.85-7.33,4.05-12,.21-40.57-33.56-73.23-73.16-91.35-123.24-8.94-24.71-12.81-50.34-7.69-76.58A106.43,106.43,0,0,1,231.05,86.65c51.43.43,94.63,35.71,104.57,86C340.86,199.2,336.42,225.05,327.61,250.22Z"/><path class="cls-1" d="M231.38,136.63c-32.31-.58-57.15,23.74-57.84,56.62-.65,30.8,24.89,56.89,56.33,57.54,30.92.65,57.49-24.6,58.11-55.2C288.64,162.38,264.49,137.22,231.38,136.63Zm41.51,57.78c-.83,23.33-19.87,41.54-42.84,41-23.76.22-41.74-20.95-41.2-42.47.58-23.32,19.44-41.75,42.47-41.24C254.9,152.2,273.7,171.53,272.89,194.41Z"/></g></g></svg>