<svg xmlns="http://www.w3.org/2000/svg" viewBox="0 0 437.8 437.8"><defs><style>.cls-1{fill:#2c3690;}</style></defs><title>ICONORecurso 1TELEFONO</title><g id="Capa_2" data-name="Capa 2"><g id="Capa_1-2" data-name="Capa 1"><path class="cls-1" d="M218.74,0C97.89.11-.18,98.36,0,219.15.18,339.74,98.31,437.78,218.86,437.8c120.75,0,219-98.27,218.94-219S339.57-.11,218.74,0ZM323,335.53c-14.18,15.16-31.23,23.5-52.19,23.08-15-.3-29.17-4.51-42.74-10.78-31.92-14.77-58.62-36.55-82.87-61.63-25.67-26.55-47.48-55.74-61.58-90.15-5.33-13-9.06-26.45-8.95-43.57-.47-21.82,10.72-40.55,30-54.92,6-4.49,13.16-4.39,18.7,0,18.22,14.47,34.41,31,44.94,52.07,4.71,9.43,4,18.93-2.87,27.64-3.29,4.16-6.89,8.2-9.14,13.07-5.72,12.37-4.7,24.53,2.9,35.58,11.2,16.29,25.07,30.3,40.17,42.93,14,11.7,30.12,11.79,45.11,1.47,6.56-4.51,12.91-9.44,21.73-8.61a34.66,34.66,0,0,1,16.22,5.94c16.82,11.2,30.51,25.77,42.74,41.62C332.61,318.93,331.2,326.7,323,335.53ZM212,149.11c.82-4.13,4.3-6.68,8.94-6.09,41.13,5.27,72.09,38.29,74.93,78,.29,6.18-1.87,9.38-6.61,9.81s-7.61-2.69-8.23-9.22a70.39,70.39,0,0,0-15.6-38.17c-11.35-14.12-26.23-22.14-43.88-25.34-1.15-.21-2.32-.28-3.43-.6C213.83,156.24,211.31,152.73,212,149.11Zm124.71,88.64c-4.35.65-7.66-1.85-8.35-7.23-1.07-8.42-2-16.86-4.45-25-16.15-53.7-52.09-85-107.17-94.63a33.53,33.53,0,0,1-3.88-.87c-3.9-1.19-5.82-3.87-5.22-7.91.64-4.22,3.3-6.49,7.62-6.26a97.8,97.8,0,0,1,24.43,4.7c52.28,16.57,85.19,51.76,99.75,104.34a111.32,111.32,0,0,1,3.46,24.16C343.07,234.2,341,237.11,336.74,237.75Z"/></g></g></svg>