<svg xmlns="http://www.w3.org/2000/svg" viewBox="0 0 434.65 434.47"><defs><style>.cls-1{fill:#98b73c;}</style></defs><title>ícono empresa botónRecurso 1</title><g id="Capa_2" data-name="Capa 2"><g id="Capa_1-2" data-name="Capa 1"><path class="cls-1" d="M227.44.23C104.3-5.37-.11,92.84,0,217.29.11,342.5,103,436,217.22,434.45,331.74,436,432.15,343,434.6,222,437.06,100.23,340.64,5.37,227.44.23ZM387.09,143.8Q276.75,253.89,166.61,364.17c-1.81,1.81-2.92,3.49-5.78.62Q103.56,307.28,46,250c-.35-.35-.62-.77-1.14-1.42,15.08-15,30.21-30,45.19-45.16,2.72-2.74,3.68-.17,5,1.15C116.41,225.85,137.85,247,159,268.54c3.78,3.85,5.58,3.35,9.1-.18Q253.2,182.88,338.53,97.6c3.06-3.07,4.74-3.64,8.08-.19,13.2,13.65,26.71,27,40.23,40.31C389.12,140,389.76,141.13,387.09,143.8Z"/></g></g></svg>