<svg xmlns="http://www.w3.org/2000/svg" viewBox="0 0 472.38 351.04"><defs><style>.cls-1{fill:#2c3690;}</style></defs><title>ícono empresa botónRecurso 1</title><g id="Capa_2" data-name="Capa 2"><g id="Capa_1-2" data-name="Capa 1"><path class="cls-1" d="M471.9,306.82c0-5.31,1.55-11.76-.89-15.6-2.28-3.59-9.12-4.06-13.59-6.55-9.5-5.3-19.05-6.8-29.13-1.9-4.71,2.29-5.32.11-5.3-4.21.16-26.82,0-53.64.15-80.46,0-3.32-.78-4.9-4.2-6-19.89-6.35-39.71-13-59.52-19.6a8.93,8.93,0,0,0-7.56.54c-10.47,5.4-21.07,10.55-31.63,15.77-5.14,2.54-5.16,2.52-5.16-3.1q0-74.2.09-148.42c0-3.79-1.12-5.42-4.71-6.72Q270,15.9,229.72.71a8,8,0,0,0-7.81.68q-31.22,18.75-62.67,37.1c-3.68,2.14-4.81,4.52-4.79,8.68.16,46,.06,92,.17,137.93,0,4.06-.51,5-4.48,2.85-9.54-5-19.38-9.54-28.95-14.52a10.51,10.51,0,0,0-9-.75c-19.64,6.61-39.3,13.16-59,19.48-3.28,1.05-4.37,2.37-4.35,5.84.16,24.65.13,49.3,0,74,0,3.9,1.82,9.54-.83,11.23-2.28,1.45-7.44-1.23-11.17-2.54-4.91-1.73-9.36-1.74-14.18.73a175.13,175.13,0,0,1-18.76,8C1,290.48,0,292,.06,295.18c.17,16.65.3,33.32,0,50-.11,5,1.48,5.9,6.12,5.89q114.93-.23,229.86-.11,115.18,0,230.36.11c4.61,0,5.79-1.22,5.68-5.74C471.71,332.48,472,319.65,471.9,306.82Zm-423,9.56c.15,4.81-.09,9.64.08,14.45.09,2.63-.43,3.87-3.48,3.8-8.47-.2-16.94-.17-25.41,0-2.68.05-3.43-.88-3.34-3.43.17-4.48,0-9,0-13.46a70.41,70.41,0,0,1,.06-8c.33-2.81-1.83-6.8,1.28-8.24,4.9-2.25,9.49-6.52,15.68-4.52,4.85,1.57,11.27,1.24,14.23,4.86S48.75,311.44,48.91,316.38Zm53.79,18.27c-11.15-.25-22.32-.2-33.48,0-3.11.05-3.9-1-3.89-4q.12-60.71,0-121.43c0-3.24,1.34-4.25,4-5.1,10.92-3.43,21.76-7.06,32.64-10.6,5.62-1.83,5.63-1.81,5.63,4.29v65.46c0,22.15-.1,44.31.1,66.46C107.75,333.75,106.57,334.74,102.7,334.65Zm48.21,0c-7.82-.17-15.64-.12-23.47,0-2.34,0-3.58-.26-3.57-3.15.08-45.78.06-91.56.06-138.26,9.93,4.92,19.09,9.52,28.31,14,2,1,2.34,2.45,2.33,4.43q0,59.68,0,119.37C154.61,333.81,153.74,334.68,150.91,334.62ZM172.54,49.83c15.23-9,30.48-18.09,46.38-27.52,0,10.87,0,21,0,31,0,1.71-1,2.31-2.14,2.92L170.94,79.84c0-9.65,0-18.68,0-27.71A2.58,2.58,0,0,1,172.54,49.83Zm.18,47.55c15.17-7.73,30.3-15.56,46.2-23.75,0,13.77,0,26.8,0,39.83a2.67,2.67,0,0,1-1.81,2.6c-15.16,7.77-30.29,15.58-46.21,23.78,0-13.53,0-26.15,0-38.78C170.91,99.52,171,98.26,172.72,97.38Zm-1.8,62.93a2.63,2.63,0,0,1,1.49-2.8c15.31-7.83,30.59-15.73,46.51-23.94,0,13.64,0,26.54,0,39.44a2.7,2.7,0,0,1-1.5,2.82c-15.29,7.84-30.56,15.73-46.51,23.95Zm1.9,56.91c15.19-7.72,30.32-15.55,46.1-23.66,0,13.64,0,26.56,0,39.47a3,3,0,0,1-2,3c-15.16,7.78-30.3,15.6-46.06,23.72,0-13.47,0-25.94,0-38.42C170.91,219.65,170.9,218.2,172.82,217.22Zm42.9,117.38c-13.79-.08-27.59-.13-41.39,0-3,0-3.47-1.18-3.46-3.8.1-16.46,0-32.92.06-49.37,0-1.59-.33-3.15,1.72-4.19,15.2-7.71,30.32-15.56,46.28-23.78,0,26.63,0,52.39,0,78.15C219,334.23,217.93,334.61,215.72,334.6Zm19.78-200c0-2.69.86-3,3.28-2.18q28.64,9.28,57.34,18.31c2.35.75,2.85,2.2,2.8,4.47-.14,6-.05,12-.05,18s-.11,12,.05,18c.07,2.46-.45,3.3-3,2.47q-29.08-9.47-58.22-18.79c-1.91-.61-2.19-1.67-2.19-3.28C235.54,159.21,235.57,146.88,235.5,134.56Zm63.37,0c-20.66-6.68-40.81-13.22-61-19.69-1.42-.46-2.35-.94-2.35-2.62,0-13.44,0-26.89,0-40.8,20.6,6.6,40.6,13,60.62,19.41,2,.64,2.79,1.67,2.77,3.93C298.8,107.75,298.87,120.72,298.87,134.54ZM239,21.68q28.41,10.6,56.87,21c1.81.67,3.09,1.4,3.05,3.79-.15,9.14-.06,18.29-.06,28-20.66-6.61-40.52-13-60.41-19.29-2.31-.73-3-2-3-4.36.1-9,.14-18,0-27C235.42,20.74,236.58,20.77,239,21.68ZM298.93,331c0,2.85-.83,3.65-3.65,3.63q-28-.17-55.92,0c-3.1,0-3.93-.91-3.9-3.94.16-12.64.07-25.29.07-37.94,0-12.48.09-25-.06-37.45,0-3.25.62-3.88,3.84-2.82,18.73,6.15,37.52,12.12,56.32,18,2.42.77,3.33,1.89,3.31,4.54Q298.75,303,298.93,331Zm-.06-76.61L260.5,242.12c-6.94-2.23-13.84-4.59-20.84-6.64-3-.87-4.28-2.15-4.22-5.5q.33-17.23,0-34.46c-.07-3.81,1.2-4,4.27-3,18.26,6,36.53,12,54.87,17.75,3.18,1,4.46,2.15,4.39,5.72C298.71,228.61,298.87,241.22,298.87,254.38Zm45.43,80.27c-7.65-.29-15.31-.21-23,0-2.85.07-3.64-.81-3.63-3.63q.12-59.67,0-119.33a4.74,4.74,0,0,1,3.11-4.93c8.08-3.88,16.14-7.81,24.08-12,3.36-1.76,3.74-.65,3.72,2.53-.09,22.3-.05,44.6-.05,66.9,0,22-.06,43.94.07,65.91C348.66,333.45,348,334.78,344.3,334.65Zm58.22,0q-16.47-.36-33,0c-3.72.09-4.73-.87-4.7-4.66.19-22.32.09-44.64.09-67s.05-44.64-.05-67c0-3.25.32-4.45,4-3.14,11.25,3.94,22.61,7.63,34,11.15,3.15,1,3.95,2.51,3.94,5.66q-.17,60.22,0,120.43C406.89,333.6,406.12,334.73,402.52,334.65Zm52.09-1c-3,2.68-10.12,1-15.41.84s-12.26,2.35-15.24-1.07c-2.59-3-.81-9.81-.88-14.94-.06-4.49.15-9-.07-13.47-.14-2.91,1-4.14,3.75-4.74a99.78,99.78,0,0,0,11.48-3.22c2.37-.82,4.39-.19,6.71.18C458,299.36,456.12,309,455.63,318,455.22,323.33,458.06,330.59,454.61,333.67Z"/></g></g></svg>