<svg id="Capa_1" data-name="Capa 1" xmlns="http://www.w3.org/2000/svg" viewBox="0 0 499.78 465.64"><defs><style>.cls-1{fill:none;}.cls-2{fill:#2c3690;}</style></defs><title>nosotros candidatos</title><path class="cls-1" d="M-298.2,393.43c-14-9.51-28-19.14-42-28.69-1-.66-1.77-2.05-3.62-1.32,2.48,19.89,5,39.81,7.54,60.36a18.29,18.29,0,0,0,2.17-1c12-8.32,24-16.73,36.07-24.94C-295.16,395.87-295.87,395-298.2,393.43Z" transform="translate(535.6 -14.36)"/><path class="cls-1" d="M-323.75,311.31c13.41,10.69,28.42,17.22,46.14,14.61,15.63-2.31,28.23-10.48,39.23-21.22C-217.1,284-204.07,258.5-196.73,230c.74-2.89,1.62-5.78,4.61-6.59,5.45-1.46,8.11-5.59,10.45-10,7-13.16,9.12-27.35,7.72-42-.49-5.12-1.27-10.55-6.21-15.26-1,9.31-1.82,17.82-2.8,26.31-.21,1.83.54,4.79-1.66,5.14-2.93.46-4-2.54-4.78-4.89a12.62,12.62,0,0,1-.28-3.95c0-6.32,0-12.65,0-19,0-1.44.4-3-1-4.17-2.3-1.93-2.54-4.61-2.26-7.31.38-3.7-.86-5.38-4.87-5.66-5.81-.4-7.79-2.87-7.88-8.75-.09-5.65.1-11.32-.09-17-.3-9.2-3.43-17.12-10.67-23.24-2.82-2.38-4.94-2.43-8.2-.43a170.39,170.39,0,0,1-62.7,22.87c-21.9,3.49-44,4.65-66.09,5.44-10.1.36-10.09.57-10.13,10.81,0,7.63-1.46,9.33-8.9,10.42-1.85.28-3.88.38-4.08,2.78-.67,8.24-4.73,16-3.33,24.59a47.15,47.15,0,0,1-.14,12.44c-.27,2.44-1.75,5.31-4.63,5-2.35-.25-1.62-3.19-1.81-5-.89-8.35-1.68-16.7-2.58-25.78a12.6,12.6,0,0,0-4.43,7.65c-3.85,15.95-1.65,31.32,4.93,46.14,2.44,5.5,5.41,10.66,11.6,13,2.33.88,3.07,3.22,3.72,5.58,1.63,5.9,3.2,11.86,5.33,17.6C-358.58,271.9-345,294.34-323.75,311.31Z" transform="translate(535.6 -14.36)"/><path class="cls-1" d="M-265.71,397.3c12.38,8.65,24.8,17.25,38,26.45l7.67-61.32c-15.93,10.95-31.08,21.42-46.3,31.79C-268.86,396-266.72,396.59-265.71,397.3Z" transform="translate(535.6 -14.36)"/><path class="cls-1" d="M-219.91,304.67c-16.9,18.53-35.26,32.86-60.14,34.78-25.49,2-45.29-10.39-63.76-28.12,0,11,.06,20.95,0,30.88,0,2.12,1.41,2.83,2.74,3.75,18.9,13,37.83,25.91,56.68,39,1.88,1.3,3.11,1.65,5.2.19,18.83-13.08,37.77-26,56.66-39,1.17-.81,2.68-1.38,2.68-3.26C-219.92,330.47-219.91,318.11-219.91,304.67Z" transform="translate(535.6 -14.36)"/><path class="cls-2" d="M-36.84,477.08c-4.34-19.42-9.26-38.74-12.92-58.29-4.67-25-19.66-41-42.41-49.86-36.66-14.21-73.68-27.49-110.6-41-2.94-1.08-4.11-2.36-4-5.61.23-10.82.13-21.64.09-32.46a10.09,10.09,0,0,1,1.47-5.64A178.28,178.28,0,0,0-185,237.24a5.72,5.72,0,0,1,2.72-3.82c5.58-3.38,9.44-8.4,12.36-14.08a84,84,0,0,0,8-55.64c-1.72-8.95-5.34-17.34-15.12-20.71-2.22-.76-1.58-2.27-1.44-3.59a119.65,119.65,0,0,0-1.26-34.78c-3-15.82-7.94-30.59-21.49-40.82-1.63-1.23-1.46-2.81-1.52-4.44a54.81,54.81,0,0,0-5.76-23C-213,27.57-219.3,20.75-229.6,19a298.8,298.8,0,0,0-74.59-3.74c-17.8,1.4-35.28,4.52-51.51,12.49-21.87,10.73-35.28,27.6-36,52.53-.6,19.6-.25,39.24.82,58.85.08,1.47,1,3.09-1.41,4.07-8.82,3.51-12.26,11.08-14.35,19.64-3.11,12.75-2.27,25.43.83,38,3.14,12.76,7.73,24.8,19.21,32.73,1.37.95,1.51,2.5,1.89,3.94,3.9,14.67,8.63,29.36,17.5,41.53,9.18,12.63,11.47,25.84,10.45,40.6-.23,3.33-1,5-4.18,6.12-18.72,6.79-37.37,13.78-56.06,20.64-21.33,7.83-42.78,15.36-64,23.49-18.51,7.09-32.32,19.8-38.2,38.83-4.73,15.32-6.86,31.42-10.6,47.07-1.74,7.3-2.07,15-5.75,21.83-.31,3.93,2.73,1.89,4,1.89q101,.18,201.91.11c-.44-11-2.4-21.79-3.78-32.65-.52-4.15,0-6.93,4.1-9.4,7.94-4.84,15.42-10.43,23-15.88,2.31-1.67,3.73-1.73,4.65,1.18a3.27,3.27,0,0,0,.36.93c6.7,9.14,6.69,18.25,1.94,28.62a128.49,128.49,0,0,0-9.25,27.2h55q-7-19.66-14.1-39.33a5.57,5.57,0,0,1,.24-4.75c2.17-4.29,4.36-8.58,6.29-13,1.14-2.61,2.22-2.52,4.34-1q12.18,8.7,24.58,17.07A4.87,4.87,0,0,1-230,444c-1.66,11.84-3.15,23.71-4.7,35.58q97.46,0,194.9-.06c1.3,0,3.1,1.12,4-.94C-36.58,478.36-36.69,477.76-36.84,477.08ZM-367.92,246.72c-2.13-5.74-3.7-11.7-5.33-17.6-.65-2.36-1.39-4.7-3.72-5.58-6.19-2.34-9.16-7.5-11.6-13-6.58-14.82-8.78-30.19-4.93-46.14a12.6,12.6,0,0,1,4.43-7.65c.9,9.08,1.69,17.43,2.58,25.78.19,1.83-.54,4.77,1.81,5,2.88.3,4.36-2.57,4.63-5a47.15,47.15,0,0,0,.14-12.44c-1.4-8.63,2.66-16.35,3.33-24.59.2-2.4,2.23-2.5,4.08-2.78,7.44-1.09,8.87-2.79,8.9-10.42,0-10.24,0-10.45,10.13-10.81,22.12-.79,44.19-2,66.09-5.44a170.39,170.39,0,0,0,62.7-22.87c3.26-2,5.38-2,8.2.43,7.24,6.12,10.37,14,10.67,23.24.19,5.65,0,11.32.09,17,.09,5.88,2.07,8.35,7.88,8.75,4,.28,5.25,2,4.87,5.66-.28,2.7,0,5.38,2.26,7.31,1.4,1.18,1,2.73,1,4.17,0,6.32,0,12.65,0,19a12.62,12.62,0,0,0,.28,3.95c.8,2.35,1.85,5.35,4.78,4.89,2.2-.35,1.45-3.31,1.66-5.14,1-8.49,1.82-17,2.8-26.31,4.94,4.71,5.72,10.14,6.21,15.26,1.4,14.67-.71,28.86-7.72,42-2.34,4.41-5,8.54-10.45,10-3,.81-3.87,3.7-4.61,6.59-7.34,28.55-20.37,54-41.65,74.75-11,10.74-23.6,18.91-39.23,21.22-17.72,2.61-32.73-3.92-46.14-14.61C-345,294.34-358.58,271.9-367.92,246.72ZM-298,397.8c-12.1,8.21-24.05,16.62-36.07,24.94a18.29,18.29,0,0,1-2.17,1c-2.57-20.55-5.06-40.47-7.54-60.36,1.85-.73,2.65.66,3.62,1.32,14,9.55,27.94,19.18,42,28.69C-295.87,395-295.16,395.87-298,397.8Zm70.33,25.95c-13.24-9.2-25.66-17.8-38-26.45-1-.71-3.15-1.33-.59-3.08,15.22-10.37,30.37-20.84,46.3-31.79Zm5.1-77.65c-18.89,13-37.83,25.92-56.66,39-2.09,1.46-3.32,1.11-5.2-.19-18.85-13-37.78-26-56.68-39-1.33-.92-2.76-1.63-2.74-3.75.1-9.93,0-19.86,0-30.88,18.47,17.73,38.27,30.09,63.76,28.12,24.88-1.92,43.24-16.25,60.14-34.78,0,13.44,0,25.8,0,38.17C-219.89,344.72-221.4,345.29-222.57,346.1Z" transform="translate(535.6 -14.36)"/></svg>