<svg xmlns="http://www.w3.org/2000/svg" xmlns:xlink="http://www.w3.org/1999/xlink" width="500" zoomAndPan="magnify" viewBox="0 0 375 374.999991" height="500" preserveAspectRatio="xMidYMid meet" version="1.0"><defs><clipPath id="74e3e77a4a"><path d="M 110.84375 25.269531 L 263.84375 25.269531 L 263.84375 350 L 110.84375 350 Z M 110.84375 25.269531 " clip-rule="nonzero"/></clipPath></defs><g clip-path="url(#74e3e77a4a)"><path fill="#000000" d="M 228.78125 79.082031 L 264.148438 79.082031 L 264.148438 25.757812 L 218.988281 25.757812 L 218.988281 25.960938 C 159.613281 28.136719 147.371094 61.398438 146.347656 96.5625 L 146.214844 96.5625 L 146.214844 133.5625 L 110.84375 133.5625 L 110.84375 186.953125 L 146.214844 186.953125 L 146.214844 349.234375 L 209.671875 349.234375 L 209.671875 186.953125 L 255.171875 186.953125 L 264.148438 133.5625 L 209.671875 133.5625 L 209.671875 100.4375 C 209.671875 88.671875 217.558594 79.082031 228.78125 79.082031 Z M 228.78125 79.082031 " fill-opacity="1" fill-rule="nonzero"/></g></svg>