<svg xmlns="http://www.w3.org/2000/svg" viewBox="0 0 92.96 95.62"><title>icono vacantesRecurso 6</title><g id="Capa_2" data-name="Capa 2"><g id="Capa_1-2" data-name="Capa 1"><path d="M8.64,12.64c0,3.09,0,6.18,0,9.27,0,.8.13,1.72-1.14,1.72s-1.16-.91-1.17-1.71q0-9.42,0-18.82c0-.83-.05-1.72,1.17-1.73s1.14.91,1.15,1.72Z"/><path d="M90.74,22.56c0-3.08,0-6.16,0-9.25,0-.78-.18-1.75,1.11-1.73s1,1,1,1.77c0,6.26,0,12.51,0,18.77,0,.76.22,1.76-1.08,1.74s-1.06-1-1.07-1.78C90.73,28.91,90.74,25.73,90.74,22.56Z"/><path d="M8.66,31.32c0,1.1.18,2.19-1.27,2.06-1.61-.15-1-1.45-1.07-2.32s-.12-2,1.28-1.85C9.28,29.34,8.32,30.75,8.66,31.32Z"/><path d="M93,41.62c-.17.8.34,2-1.12,2s-1.13-1.17-1.12-2-.3-2.24,1.27-2.13C93.38,39.59,92.75,40.85,93,41.62Z"/><path d="M72,19.69c-1.16-2.78-.38-5.69-.46-8.53,0-1.82-.42-2.51-2.4-2.5q-21.53.12-43,0c-2,0-2.38.74-2.37,2.53.07,11,0,22,0,33,0,1.25.05,2.35,1.46,2.82-1.51.22-1.88-.61-1.88-1.92,0-11.54.05-23.08,0-34.61,0-2.22,1.25-2.21,2.82-2.2q17.58,0,35.15,0c2.73,0,5.45.08,8.17,0,1.86-.07,2.64.54,2.56,2.48C71.94,13.69,72,16.7,72,19.69Z"/><path d="M85.33,20.25c0-1,0-2.09-1-2.7-3.21-2.08-3.55-5.17-3.29-8.59.16-2-.08-4,.06-6C81.3.68,80.41,0,78.15,0Q48.39.13,18.64,0c-2.55,0-3,.89-3,3.16.1,11.74,0,23.48.07,35.22a5.65,5.65,0,0,1-1.36,4C10.2,47.38,6.15,52.53,2,57.58A8.15,8.15,0,0,0,0,63.08c0,9.92.1,19.84,0,29.76,0,2.39.8,2.8,3,2.78,13.1-.1,26.21-.05,39.31-.05,13.38,0,26.76,0,40.13,0,2,0,3-.46,3-2.72Q85.27,56.57,85.33,20.25Zm-4.64-2.66c-1.9.63-3.86.24-5.8.25-.79,0-1-.6-1-1.3V10.37ZM20.6,2.2q27.71.13,55.4,0c2.15,0,2.92.57,2.73,2.74s0,4.09,0,6.49C76.32,9.9,75.11,7.75,73,6.65a2.74,2.74,0,0,0-1.84-.28H23.85a3.49,3.49,0,0,0-1.6.2l0,0c-1.05.81-.76,2-.76,3,0,11.54,0,23.08,0,34.63,0,.93.47,2-.41,2.82-1.24.16-1.83,1.34-2.76,2-.6-.69-.36-1.35-.36-2,0-14,0-28-.06-42C17.88,2.89,18.38,2.19,20.6,2.2Zm1.65,89.3a2.93,2.93,0,0,1-3,1.8c-4.91-.09-9.83-.1-14.74,0-1.83,0-2.32-.63-2.31-2.38.07-9.19,0-18.38,0-27.57a4.93,4.93,0,0,1,.67-3.16C7,55.09,11.05,50,15.64,44.33c0,5.9.11,11-.05,16a5.06,5.06,0,0,1-3.23,4.92,6.85,6.85,0,0,0-1.93,1.49c-.45.41-1.06.92-.33,1.57.47.42,1,.74,1.69.22C14.54,66.45,17.74,65,18,60.65c.17-3.12,1.37-6.18,2.13-9.26.53-2.13,1.89-3.07,4.05-2.58s2.85,2,2.41,4.12q-2.09,10.27-4.12,20.55A8.91,8.91,0,0,0,22.73,78C24.13,82.53,24.71,87.06,22.25,91.5Zm60.8-.38c0,1.65-.48,2.19-2.16,2.18q-27.28-.08-54.59,0c-1.8,0-2.3-.37-1.48-2.15a13.5,13.5,0,0,0,.78-10.36c-1.88-5.25-.19-10.21.75-15.25.79-4.28,1.7-8.54,2.48-12.83.54-3-.61-4.75-3.57-5.74-1.22-.14-1.59-.8-1.59-2q.06-17.3,0-34.6c0-1.48.56-1.83,1.92-1.82,14.71,0,29.42.05,44.13,0,1.81,0,2,.73,2.06,2.26,0,3-.41,6,.26,8.92,2.89,1.1,5.89.37,8.84.46,1.65.05,2.17.48,2.17,2.17Q83,56.72,83.05,91.12Z"/><path d="M22.25,6.56c.72-.58,1.57-.35,2.36-.35q23.05,0,46.11,0c.77,0,1.65-.34,2.3.43Z"/><path d="M21.07,47a13.9,13.9,0,0,0,.25-4.31c0-11.14,0-22.27,0-33.4,0-1-.63-2.27.92-2.77a9.2,9.2,0,0,0-.48,3.75q0,16.86,0,33.73C21.78,45,22.21,46.22,21.07,47Z"/><path d="M54.54,53.09c-6.82,0-13.64,0-20.46,0-.77,0-2,.56-2.15-.89-.13-1.6,1.18-1.31,2.12-1.31q20.6,0,41.2,0c.84,0,2-.31,2,1.12s-1.19,1.08-2,1.08C68.37,53.1,61.46,53.09,54.54,53.09Z"/><path d="M54.81,74.4c6.73,0,13.46,0,20.19,0,1,0,2.5-.53,2.37,1.29-.12,1.55-1.53,1-2.4,1q-20.17.06-40.36,0c-.86,0-2.28.57-2.37-1-.11-1.82,1.44-1.26,2.39-1.27C41.36,74.38,48.09,74.4,54.81,74.4Z"/><path d="M43.18,37.88c3.17,0,6.35,0,9.52,0,.9,0,1.91-.13,1.85,1.3,0,1.26-1,1.11-1.76,1.11q-9.52,0-19,0c-.91,0-2,.09-1.87-1.3s1.2-1.11,2.06-1.11C37,37.86,40.09,37.88,43.18,37.88Z"/><path d="M43.08,60H33.57c-.85,0-1.71,0-1.72-1.2s.89-1.18,1.72-1.18H52.86c.81,0,1.69,0,1.69,1.2S53.69,60,52.86,60Z"/><path d="M67.65,40.3c-2.64,0-5.28,0-7.91,0-.88,0-1.93.17-1.91-1.27,0-1.25.93-1.14,1.73-1.14,5.37,0,10.73,0,16.1,0,.88,0,1.7.09,1.66,1.26s-.94,1.15-1.76,1.16C72.92,40.31,70.28,40.3,67.65,40.3Z"/><path d="M67.4,60H59.5c-.84,0-1.69,0-1.67-1.21s.91-1.18,1.71-1.18H75.62c.83,0,1.73,0,1.7,1.2S76.41,60,75.58,60Z"/><path d="M51.54,30.1c-3.18,0-6.37,0-9.55,0-.76,0-1.74.25-1.78-1.05s.87-1.18,1.68-1.18H61c.84,0,1.72,0,1.65,1.22s-1.08,1-1.82,1C57.73,30.12,54.63,30.1,51.54,30.1Z"/><path d="M62.3,83.2c-2.27,0-4.53,0-6.79,0-.69,0-1.55.14-1.61-.94S54.62,81,55.51,81H69.09c.91,0,1.67.15,1.61,1.3s-.92.94-1.61,1C66.83,83.22,64.56,83.2,62.3,83.2Z"/><path d="M69.08,47.1H62.81c-.78,0-1.47-.11-1.5-1.12s.6-1.2,1.41-1.2H75.79c.76,0,1.49.05,1.51,1.09,0,1.21-.85,1.21-1.69,1.21Z"/><path d="M69.3,66.78c-2.18,0-4.36,0-6.54,0-.81,0-1.43-.18-1.45-1.18s.69-1.1,1.46-1.1H75.84c.76,0,1.49,0,1.46,1.11s-.67,1.17-1.47,1.17Z"/><path d="M51.53,20.38c2,0,4,0,6,0,.79,0,1.73-.12,1.82,1.08s-.83,1.21-1.64,1.21H45.19c-.81,0-1.74.08-1.69-1.17s1-1.11,1.78-1.12C47.36,20.36,49.44,20.38,51.53,20.38Z"/><path d="M53.1,44.81c1.45,0,2.89,0,4.33,0,.78,0,1.44.12,1.4,1.16,0,.83-.5,1.09-1.22,1.09H48.15c-.7,0-1.22-.21-1.27-1-.06-1,.54-1.21,1.36-1.21Z"/><path d="M52.88,66.77H48.26c-.82,0-1.41-.21-1.41-1.21s.52-1,1.23-1h9.51c.69,0,1.24.11,1.26,1s-.51,1.25-1.35,1.25Z"/><path d="M37.68,66.76H33.05c-.78,0-1.12-.44-1.15-1.19s.5-1.06,1.22-1h9.53c.76,0,1.2.27,1.15,1.12a1.06,1.06,0,0,1-1.21,1.13Z"/><path d="M37.8,47.06c-1.54,0-3.08,0-4.62,0C32.45,47,32,46.71,32,45.9s.53-1.08,1.23-1.08h9.24c.68,0,1.27.14,1.31,1s-.51,1.26-1.36,1.25Z"/></g></g></svg>