<svg xmlns="http://www.w3.org/2000/svg" viewBox="0 0 106.92 106.9"><title>icono usuarioRecurso 5</title><g id="Capa_2" data-name="Capa 2"><g id="Capa_1-2" data-name="Capa 1"><path d="M53.5,0C23.32,0,1.56,24,.1,49.58c-1.9,33.11,23.6,56.75,51.84,57.31,31.72.62,55-24.45,55-52.74C106.94,22.84,82.51,0,53.5,0ZM82.6,90A46.32,46.32,0,0,1,64,99a76.2,76.2,0,0,1-10,1.36c-11.24-.41-21-3.45-29.43-10.15a2.53,2.53,0,0,1-1.05-2.38C24,77,32.21,66,42.72,62.24c10-3.59,19.6-2.52,28.26,3.68A29.18,29.18,0,0,1,83.41,88.25,1.86,1.86,0,0,1,82.6,90ZM36.85,36.73C36.69,27.6,44,20.31,53.33,20.16a16.59,16.59,0,0,1,16.83,16.5c.15,8.74-7.26,16.46-15.69,16.82C44.55,53.9,36.62,45.91,36.85,36.73ZM89.67,82.38c-.77-.12-.57-1.29-.78-2C85.63,69.51,79,61.56,68.63,56.74c-1.73-.81-1.72-.84-.21-2.07,10.36-8.46,11.15-24.11,2.07-34A23.35,23.35,0,1,0,38.75,54.8c1.19.94,1,1.31-.26,1.91A36.23,36.23,0,0,0,17.7,81.54c-.08.31,0,.76-.4.87s-.68-.33-.93-.64A41.53,41.53,0,0,1,9.34,69,45.58,45.58,0,0,1,6.72,51.6C7.38,37.44,13.39,26,24.25,17c8.07-6.72,19.84-10.34,29.3-10.29A46.63,46.63,0,0,1,97.28,37.29c5.53,15.45,3.47,29.92-5.82,43.39C91,81.37,90.61,82.53,89.67,82.38Z"/></g></g></svg>