<svg xmlns="http://www.w3.org/2000/svg" xmlns:xlink="http://www.w3.org/1999/xlink" width="500" zoomAndPan="magnify" viewBox="0 0 375 374.999991" height="500" preserveAspectRatio="xMidYMid meet" version="1.0"><defs><clipPath id="48b23e3c1d"><path d="M 17.421875 17.421875 L 357.921875 17.421875 L 357.921875 357.921875 L 17.421875 357.921875 Z M 17.421875 17.421875 " clip-rule="nonzero"/></clipPath><clipPath id="d942169489"><path d="M 268.21875 66.753906 L 308.246094 66.753906 L 308.246094 106.78125 L 268.21875 106.78125 Z M 268.21875 66.753906 " clip-rule="nonzero"/></clipPath><clipPath id="de383a01f1"><path d="M 288.230469 66.753906 C 277.179688 66.753906 268.21875 75.714844 268.21875 86.769531 C 268.21875 97.820312 277.179688 106.78125 288.230469 106.78125 C 299.285156 106.78125 308.246094 97.820312 308.246094 86.769531 C 308.246094 75.714844 299.285156 66.753906 288.230469 66.753906 Z M 288.230469 66.753906 " clip-rule="nonzero"/></clipPath></defs><g clip-path="url(#48b23e3c1d)"><path fill="#95beac" d="M 357.921875 69.105469 C 357.921875 40.546875 334.769531 17.398438 306.214844 17.398438 L 69.125 17.398438 C 40.570312 17.398438 17.421875 40.546875 17.421875 69.105469 L 17.421875 306.191406 C 17.421875 334.75 40.570312 357.898438 69.125 357.898438 L 306.214844 357.898438 C 334.769531 357.898438 357.921875 334.75 357.921875 306.191406 Z M 340.265625 69.105469 L 340.265625 306.191406 C 340.265625 325 325.019531 340.242188 306.214844 340.242188 L 69.125 340.242188 C 50.320312 340.242188 35.074219 325 35.074219 306.191406 L 35.074219 69.105469 C 35.074219 50.296875 50.320312 35.054688 69.125 35.054688 L 306.214844 35.054688 C 325.019531 35.054688 340.265625 50.296875 340.265625 69.105469 Z M 187.671875 98.109375 C 138.253906 98.109375 98.132812 138.230469 98.132812 187.648438 C 98.132812 237.066406 138.253906 277.1875 187.671875 277.1875 C 237.089844 277.1875 277.210938 237.066406 277.210938 187.648438 C 277.210938 138.230469 237.089844 98.109375 187.671875 98.109375 Z M 187.671875 115.765625 C 227.34375 115.765625 259.554688 147.976562 259.554688 187.648438 C 259.554688 227.320312 227.34375 259.53125 187.671875 259.53125 C 147.996094 259.53125 115.785156 227.320312 115.785156 187.648438 C 115.785156 147.976562 147.996094 115.765625 187.671875 115.765625 Z M 288.558594 66.582031 C 299.695312 66.582031 308.738281 75.621094 308.738281 86.761719 C 308.738281 97.898438 299.695312 106.9375 288.558594 106.9375 C 277.421875 106.9375 268.382812 97.898438 268.382812 86.761719 C 268.382812 75.621094 277.421875 66.582031 288.558594 66.582031 Z M 288.558594 66.582031 " fill-opacity="1" fill-rule="evenodd"/></g><g clip-path="url(#d942169489)"><g clip-path="url(#de383a01f1)"><path fill="#95beac" d="M 268.21875 66.753906 L 308.246094 66.753906 L 308.246094 106.78125 L 268.21875 106.78125 Z M 268.21875 66.753906 " fill-opacity="1" fill-rule="nonzero"/></g></g></svg>