<svg xmlns="http://www.w3.org/2000/svg" viewBox="0 0 485.79 421.85"><defs><style>.cls-1{fill:#2c3690;}</style></defs><title>maletaRecurso 1icono</title><g id="Capa_2" data-name="Capa 2"><g id="Capa_1-2" data-name="Capa 1"><path class="cls-1" d="M105,354c4.58-4,9.2-7.9,13.77-11.88,3.37-2.92,6.68-5.91,10-8.83,4.67-4.07,9.39-8.09,14.06-12.15,3.32-2.88,6.59-5.81,9.91-8.69,4.48-3.88,9-7.71,13.49-11.6,3.33-2.87,6.59-5.82,9.9-8.7,4.68-4.06,9.39-8.08,14.06-12.14,3.32-2.88,6.59-5.81,9.91-8.69,4.53-3.93,9.11-7.8,13.63-11.74,3.42-3,6.77-6,10.18-9,4.67-4.07,9.38-8.09,14.06-12.14,3.18-2.75,6.32-5.54,9.49-8.29,4.59-4,9.2-7.9,13.78-11.87,3.37-2.93,6.68-5.92,10-8.84,4.68-4.07,9.39-8.09,14.07-12.15,3.26-2.84,6.49-5.73,9.75-8.57q7.09-6.15,14.21-12.28c3.12-2.7,6.22-5.44,9.35-8.15,4.58-4,9.2-7.89,13.78-11.87,3.37-2.92,6.67-5.91,10-8.84,4.72-4.11,9.48-8.18,14.2-12.28,3.27-2.84,6.5-5.73,9.77-8.56,4.44-3.84,8.92-7.63,13.36-11.47,3.37-2.92,6.68-5.92,10-8.85,4.72-4.11,9.48-8.17,14.21-12.28,3.27-2.84,6.49-5.73,9.77-8.56,4.53-3.93,9.11-7.81,13.64-11.74,3.42-3,6.77-6,10.19-9,4.67-4.07,9.38-8.09,14.06-12.15,3.18-2.75,6.32-5.54,9.49-8.29q6.81-5.88,13.66-11.73c2.74-2.36,5.49-4.7,8.21-7.07,1.59-1.39,2.75-2.8,2.65-5.27-.25-6.07-.13-12.15-.05-18.22,0-1.59-.4-2.2-2.07-2.18-8,.06-16.05,0-24.07,0a2.36,2.36,0,0,0-1.84.45c-1.09,1-2.22,2-3.34,3-3.34,2.94-6.67,5.91-10,8.84-4.67,4.06-9.38,8.08-14.06,12.14-3.32,2.88-6.58,5.82-9.9,8.69-4.49,3.89-9,7.72-13.5,11.6-3.32,2.88-6.58,5.82-9.9,8.7-4.68,4.06-9.39,8.08-14.06,12.14-3.32,2.88-6.59,5.82-9.91,8.7-4.53,3.93-9.1,7.8-13.63,11.74-3.41,3-6.76,6-10.18,9-4.67,4.06-9.38,8.08-14.06,12.14-3.17,2.75-6.31,5.54-9.49,8.29-4.58,4-9.2,7.89-13.78,11.87-3.37,2.92-6.67,5.92-10,8.84-4.44,3.84-8.94,7.61-13.37,11.46-3.51,3-6.95,6.19-10.45,9.25Q271,163,263.84,169.11c-3.28,2.82-6.55,5.65-9.77,8.54-4.37,3.92-8.91,7.64-13.35,11.48-3.37,2.92-6.67,5.92-10,8.85-4.72,4.11-9.48,8.17-14.2,12.28-3.27,2.84-6.49,5.73-9.76,8.57-4.63,4-9.3,8-13.93,12-3.31,2.88-6.58,5.83-9.9,8.71-4.58,4-9.2,7.9-13.79,11.87-3.27,2.83-6.5,5.73-9.77,8.56-4.58,4-9.2,7.9-13.78,11.88-3.37,2.92-6.68,5.91-10.05,8.84-4.67,4.07-9.38,8.09-14.06,12.15-3.27,2.84-6.49,5.73-9.76,8.57-4.64,4-9.3,8-13.94,12-3.22,2.79-6.4,5.63-9.62,8.43-4.59,4-9.21,7.89-13.79,11.87-3.37,2.93-6.67,5.92-10,8.84-5.41,4.69-10.88,9.32-16.28,14-4.49,3.9-8.89,7.9-13.39,11.79-6.29,5.45-12.64,10.83-18.95,16.26-4.9,4.21-9.76,8.46-14.64,12.68a2.66,2.66,0,0,0-1,2.19c0,6.92.07,13.84,0,20.76,0,1.38.5,1.57,1.68,1.56,4-.07,8,0,11.94,0,3.78,0,7.57-.09,11.35,0a5.67,5.67,0,0,0,4.29-1.78c1.45-1.38,2.93-2.74,4.45-4.06,4.63-4,9.29-8,13.91-12,3.37-2.92,6.68-5.9,10.05-8.83,4.52-3.93,9.1-7.8,13.62-11.74,3.42-3,6.77-6,10.18-9,4.62-4,9.29-8,13.92-12C98.61,359.66,101.79,356.83,105,354Z"/><path class="cls-1" d="M214.36,353.25q4.84-4.14,9.61-8.4c4.65-4.18,9.43-8.19,14.17-12.27q3.3-2.83,6.56-5.72c4.41-3.95,9-7.71,13.46-11.59,3.37-2.91,6.66-5.91,10-8.83,4.71-4.1,9.46-8.15,14.18-12.25,3.26-2.83,6.48-5.72,9.74-8.55,4.62-4,9.29-8,13.91-12,3.36-2.91,6.66-5.9,10-8.82,4.53-3.92,9.1-7.79,13.62-11.7,3.32-2.88,6.58-5.81,9.89-8.68,4.57-4,9.19-7.89,13.76-11.85,3.36-2.92,6.66-5.91,10-8.83,4.71-4.1,9.46-8.16,14.17-12.25,3.27-2.84,6.48-5.73,9.75-8.56,4.62-4,9.28-8,13.9-12,3.22-2.79,6.39-5.63,9.6-8.42,4.63-4,9.28-8,13.9-12,3.37-2.92,6.67-5.91,10-8.82,4.48-3.88,9-7.69,13.48-11.57,3.46-3,6.85-6.09,10.3-9.1q7.07-6.17,14.18-12.25c3.47-3,6.95-5.93,10.43-8.9a6.44,6.44,0,0,0,2.72-5.38c-.16-13.71-.07-27.42-.07-41.13,0-.46,0-.92,0-1.37s0-.66-.31-.86-.72.09-1,.35c-4.22,3.7-8.42,7.41-12.66,11.09-3.27,2.83-6.55,5.65-9.76,8.54-4.55,4.09-9.26,8-13.89,12-3.21,2.79-6.39,5.63-9.61,8.42-4.57,4-9.19,7.88-13.76,11.84-3.36,2.92-6.67,5.91-10,8.83q-7.14,6.22-14.33,12.39c-3.24,2.77-6.45,5.56-9.62,8.41-4.6,4.12-9.35,8.09-14,12.14-2.24,1.94-4.43,3.94-6.68,5.88-4.48,3.86-9,7.69-13.49,11.57-3.36,2.91-6.66,5.9-10,8.82-4.67,4.06-9.38,8.07-14,12.12-3.32,2.88-6.58,5.82-9.89,8.69-4.58,4-9.19,7.88-13.76,11.85-3.42,3-6.76,6-10.18,9-4.42,3.83-8.91,7.6-13.34,11.44-3.36,2.91-6.66,5.9-10,8.83-4.72,4.1-9.47,8.16-14.18,12.26-3.27,2.83-6.49,5.72-9.75,8.55-4.62,4-9.28,8-13.9,12-3.37,2.92-6.66,5.92-10,8.83-4.43,3.83-8.92,7.6-13.35,11.43-3.36,2.92-6.66,5.91-10,8.83-4.76,4.15-9.56,8.26-14.32,12.4-3.22,2.79-6.39,5.62-9.61,8.41-4.67,4.06-9.37,8.07-14,12.12-3.32,2.88-6.57,5.82-9.89,8.69-4.53,3.93-9.1,7.79-13.63,11.71-3.31,2.88-6.57,5.82-9.88,8.69-4.58,4-9.19,7.88-13.77,11.85-3.36,2.92-6.65,5.91-10,8.83-5.41,4.67-10.86,9.29-16.27,14-3.69,3.19-7.32,6.43-11.07,9.72a3.3,3.3,0,0,0,.6.13h52.45a1.9,1.9,0,0,0,1.45-.38c2.16-1.94,4.36-3.84,6.53-5.76,3.39-3,6.75-6,10.16-9,4.57-4,9.18-7.88,13.76-11.84,3.27-2.83,6.48-5.72,9.75-8.54,4.57-4,9.18-7.88,13.75-11.85,3.37-2.92,6.67-5.9,10-8.83Q207.17,359.42,214.36,353.25Z"/><path class="cls-1" d="M283.91,57.57c-4.48,3.87-9,7.69-13.48,11.57-3.37,2.91-6.67,5.9-10,8.83C255.74,82,251,86,246.36,90.08c-3.31,2.88-6.57,5.82-9.88,8.69-4.62,4-9.28,8-13.9,12-3.36,2.92-6.66,5.91-10,8.82-4.38,3.79-8.82,7.51-13.2,11.3-3.42,3-6.76,6-10.16,9-4.76,4.14-9.56,8.25-14.32,12.39-3.22,2.79-6.39,5.62-9.61,8.41-4.67,4.05-9.37,8.06-14,12.12-3.31,2.87-6.57,5.81-9.88,8.69-4.58,4-9.19,7.88-13.77,11.84-3.26,2.83-6.48,5.72-9.75,8.55-4.57,4-9.19,7.87-13.76,11.84-3.36,2.92-6.66,5.91-10,8.83-4.71,4.1-9.46,8.16-14.18,12.26-3.26,2.83-6.48,5.72-9.74,8.55-4.67,4.05-9.37,8.07-14,12.12-3.17,2.74-6.3,5.53-9.47,8.27-4.53,3.92-9.1,7.78-13.62,11.71-3.42,3-6.76,6-10.17,9Q15.7,290.6,8.5,296.77q-3.58,3.08-7.23,6.08A3.27,3.27,0,0,0,0,305.71q.06,21.74,0,43.49v1.95L403.67.46a.93.93,0,0,0-1-.42H351.2a2.47,2.47,0,0,0-1.78.59c-3.64,3.17-7.33,6.29-11,9.45-3.37,2.92-6.67,5.91-10,8.82-4.52,3.92-9.09,7.79-13.61,11.72-3.41,3-6.75,6-10.16,9-4.57,4-9.19,7.88-13.77,11.84C288.53,53.44,286.26,55.55,283.91,57.57Z"/><path class="cls-1" d="M318.72,356.69c4.67-4.05,9.37-8.07,14-12.12,3.32-2.88,6.58-5.82,9.9-8.69,4.47-3.88,9-7.7,13.48-11.59,3.46-3,6.85-6.09,10.3-9.1,4.71-4.11,9.46-8.17,14.19-12.27,2.24-1.94,4.44-3.94,6.69-5.87,4.44-3.83,8.92-7.61,13.35-11.44,3.36-2.92,6.66-5.91,10-8.83,4.72-4.11,9.47-8.17,14.19-12.27,3.26-2.83,6.48-5.72,9.74-8.56,4.62-4,9.29-8,13.91-12,3.36-2.92,6.66-5.92,10-8.83,4.38-3.79,8.81-7.52,13.21-11.3q5.72-4.91,11.41-9.85a6.34,6.34,0,0,0,2.6-5.26c-.16-13.26-.07-26.51-.07-39.77,0-.46,0-.91,0-1.37a1.92,1.92,0,0,0-1-1.58c-.6-.39-.86.36-1.23.65-2.29,1.78-4.38,3.8-6.56,5.72-4.43,3.92-9,7.71-13.47,11.58-3.37,2.92-6.67,5.91-10,8.83-4.66,4.06-9.37,8.07-14,12.12-3.31,2.88-6.57,5.82-9.88,8.69-4.62,4-9.29,8-13.91,12-3.36,2.92-6.66,5.91-10,8.82-4.43,3.84-8.91,7.61-13.34,11.44-3.36,2.92-6.66,5.91-10,8.83-4.71,4.1-9.47,8.16-14.19,12.25-3.26,2.84-6.48,5.72-9.74,8.56-4.67,4-9.37,8.06-14,12.12-3.31,2.87-6.57,5.81-9.89,8.68-4.53,3.92-9.1,7.79-13.62,11.71-3.32,2.87-6.58,5.81-9.89,8.68-4.58,4-9.19,7.88-13.76,11.85-3.36,2.92-6.66,5.91-10,8.83-4.72,4.1-9.47,8.16-14.18,12.26-3.27,2.83-6.48,5.72-9.75,8.55-4.62,4-9.28,8-13.9,12-3.22,2.79-6.39,5.63-9.61,8.41-4.53,3.92-9.1,7.78-13.63,11.71-3.41,3-6.75,6-10.16,9-4.76,4.15-9.55,8.26-14.32,12.39-3.31,2.87-6.61,5.76-9.94,8.61-.28.24-.76.33-.68.78s.56.69,1,.74,1.17.06,1.76.06H242.2a3.55,3.55,0,0,0,2.5-.76c2-1.68,4-3.47,6-5.22,4.45-3.92,9-7.72,13.48-11.6,3.46-3,6.85-6.1,10.31-9.12,4.71-4.11,9.46-8.17,14.18-12.26,2.2-1.91,4.35-3.85,6.55-5.75,4.54-3.91,9.11-7.79,13.63-11.71C312.14,362.51,315.4,359.57,318.72,356.69Z"/><path class="cls-1" d="M.62,255.83c.85.32,1.46-.54,2.08-1.09,3.42-3.05,6.83-6.11,10.29-9.12,4.61-4,9.28-8,13.9-12,3.36-2.92,6.66-5.91,10-8.82,4.43-3.83,8.91-7.61,13.34-11.44,3.36-2.92,6.66-5.91,10-8.83,4.71-4.1,9.46-8.16,14.17-12.26,3.27-2.84,6.48-5.72,9.75-8.56,4.67-4,9.37-8.06,14-12.11,3.31-2.88,6.57-5.82,9.89-8.69,4.57-4,9.18-7.88,13.75-11.85,3.42-3,6.76-6,10.18-9,4.42-3.83,8.91-7.61,13.34-11.44,3.36-2.92,6.66-5.91,10-8.83,4.71-4.1,9.46-8.16,14.18-12.26,3.26-2.84,6.48-5.73,9.74-8.56,4.62-4,9.29-8,13.91-12,3.36-2.92,6.66-5.91,10-8.82,4.43-3.84,8.91-7.61,13.34-11.44,3.37-2.92,6.66-5.91,10-8.84C231.4,55.8,236.2,51.7,241,47.56c3.22-2.8,6.38-5.64,9.61-8.42,4.39-3.78,8.84-7.5,13.21-11.3,3.56-3.09,7-6.3,10.58-9.38C280.64,13,287,7.65,293.27,2.22c.48-.42,1.43-.8,1.06-1.65S293.07,0,292.38,0q-12.33,0-24.66,0T243.06,0a2.7,2.7,0,0,0-2,.42c-5.09,4.47-10.21,8.91-15.31,13.37-3.35,2.93-6.66,5.91-10,8.83-4.48,3.88-9,7.69-13.49,11.58-3.46,3-6.85,6.09-10.31,9.1-4.71,4.11-9.47,8.17-14.19,12.27-3.12,2.7-6.22,5.44-9.34,8.14-4.63,4-9.29,8-13.91,12-3.37,2.92-6.68,5.9-10,8.82-4.53,3.93-9.1,7.8-13.63,11.73-3.42,3-6.76,6-10.18,9-4.39,3.8-8.83,7.52-13.22,11.32-3.42,3-6.77,6-10.18,9-4.77,4.15-9.57,8.27-14.34,12.41-3.22,2.8-6.4,5.64-9.62,8.43-4.63,4-9.29,8-13.92,12-3.37,2.92-6.68,5.91-10.05,8.83-4.53,3.92-9.11,7.8-13.64,11.73-3.42,3-6.77,6-10.18,9-4.49,3.89-9,7.73-13.52,11.59-3.52,3-7,6-10.61,9A3.36,3.36,0,0,0,0,211.4q.06,21.16,0,42.31C0,254.47-.23,255.5.62,255.83Z"/><path class="cls-1" d="M427.76,356.27c3.36-2.92,6.66-5.91,10-8.83,4.38-3.78,8.82-7.5,13.2-11.3,3.41-2.95,6.75-6,10.16-9q7.14-6.23,14.33-12.38c2.54-2.19,5.16-4.27,7.63-6.53,1.18-1.09,2.64-2,2.63-4.08-.06-14.43,0-28.86-.05-43.29,0-.47.32-1.16-.26-1.41s-1,.45-1.41.82c-3.3,2.89-6.58,5.82-9.9,8.7-4.58,4-9.21,7.9-13.79,11.87-3.36,2.93-6.67,5.92-10,8.85q-7.08,6.16-14.21,12.28c-3.29,2.82-6.56,5.65-9.78,8.54-4.37,3.93-8.91,7.64-13.35,11.49-3.37,2.92-6.67,5.92-10,8.84-4.54,3.93-9.12,7.8-13.65,11.73-3.42,3-6.76,6-10.18,9-5.42,4.69-10.89,9.31-16.3,14-4.49,3.9-8.89,7.9-13.38,11.79-5.36,4.65-10.81,9.21-16.16,13.86-4.54,3.94-9,8-13.53,11.93-7,6.13-14.16,12.2-21.63,18.63h53.2a2.06,2.06,0,0,0,1.64-.42c1.17-1.11,2.39-2.16,3.61-3.23,3.33-2.95,6.66-5.91,10-8.83,4.43-3.83,8.92-7.6,13.34-11.44,3.37-2.91,6.67-5.91,10-8.83,4.71-4.1,9.47-8.15,14.19-12.25,3.26-2.83,6.48-5.72,9.74-8.55C418.47,364.24,423.14,360.28,427.76,356.27Z"/><path class="cls-1" d="M0,142.9v19.87l6.32-5.52c3.26-2.86,6.49-5.74,9.76-8.57,4.4-3.79,8.84-7.52,13.23-11.32,3.42-3,6.77-6,10.18-9,4.72-4.11,9.48-8.17,14.2-12.28,3.27-2.84,6.49-5.73,9.77-8.56,4.48-3.88,9-7.71,13.5-11.6,3.47-3,6.86-6.1,10.32-9.11,4.72-4.11,9.47-8.18,14.2-12.28,3.13-2.71,6.22-5.45,9.35-8.15,4.58-4,9.2-7.9,13.78-11.87,3.37-2.93,6.68-5.92,10-8.84,4.72-4.11,9.48-8.18,14.2-12.29,3.27-2.84,6.49-5.73,9.77-8.56,4.39-3.79,8.82-7.54,13.23-11.31,3.67-3.15,7.35-6.29,11-9.47,1.36-1.19,2.64-2.48,4.1-3.86a7.78,7.78,0,0,0-.91-.15q-25.83,0-51.66,0A3.69,3.69,0,0,0,132,1c-2.46,2.09-4.84,4.27-7.25,6.41-3.34,3-6.66,5.91-10,8.83-4.47,3.88-9,7.69-13.48,11.57-3.45,3-6.79,6.16-10.31,9.09-4.8,4-9.5,8.12-14.17,12.26C74.5,51.1,72.28,53.07,70,55c-4.44,3.82-8.91,7.6-13.34,11.44-3.36,2.91-6.66,5.9-10,8.82-4.71,4.1-9.46,8.16-14.18,12.26-3.26,2.83-6.48,5.72-9.74,8.55q-7,6.08-14,12.11c-2.44,2.09-4.89,4.18-7.36,6.23A3.27,3.27,0,0,0,0,117.24C.07,125.79,0,134.34,0,142.9Z"/><path class="cls-1" d="M485.7,357.5a8.23,8.23,0,0,0,0-1.57c-.25-1.24-1.25-1.51-2.29-.83a31.39,31.39,0,0,0-3.34,3c-4.71,4.1-9.46,8.16-14.18,12.26-3.26,2.83-6.48,5.71-9.74,8.55-4.67,4.05-9.36,8.07-14,12.12-3.17,2.74-6.3,5.53-9.47,8.27-4.58,4-9.19,7.88-13.76,11.84-3.7,3.2-7.37,6.43-11.18,9.75a3.4,3.4,0,0,0,2.89,1c16.11,0,32.22,0,48.34,0a4.58,4.58,0,0,0,3.17-1.1c3.45-3,6.84-6.09,10.3-9.1s7.13-6.12,10.68-9.19c1.64-1.41,2.76-2.84,2.72-5.39C485.6,383.88,485.71,370.69,485.7,357.5Z"/><path class="cls-1" d="M0,44.1Q0,54.77,0,65.44c0,.74,0,1.5.75,1.85.57.25,1.05-.14,1.49-.53L23.12,48.64C29,43.57,34.84,38.57,40.61,33.43,47.5,27.32,54.5,21.34,61.46,15.3,66.37,11,71.21,6.69,76.19,2.51c.54-.45,1.57-.87,1.21-1.78S76.11,0,75.32,0H26A2.44,2.44,0,0,0,24.2.48Q18.11,5.85,12,11.15,6.62,15.74,1.24,20.29A3.15,3.15,0,0,0,0,23C.07,30,0,37.06,0,44.1Z"/></g></g></svg>