<svg xmlns="http://www.w3.org/2000/svg" xmlns:xlink="http://www.w3.org/1999/xlink" width="500" zoomAndPan="magnify" viewBox="0 0 375 374.999991" height="500" preserveAspectRatio="xMidYMid meet" version="1.0"><defs><clipPath id="8f0230cd6b"><path d="M 54.15625 9 L 302 9 L 302 351 L 54.15625 351 Z M 54.15625 9 " clip-rule="nonzero"/></clipPath><clipPath id="2c24402c73"><path d="M 68 23 L 317 23 L 317 365.914062 L 68 365.914062 Z M 68 23 " clip-rule="nonzero"/></clipPath><clipPath id="db5412418f"><path d="M 125.929688 271.210938 L 158.976562 271.210938 L 158.976562 304.253906 L 125.929688 304.253906 Z M 125.929688 271.210938 " clip-rule="nonzero"/></clipPath><clipPath id="17c576711d"><path d="M 142.453125 271.210938 C 133.328125 271.210938 125.929688 278.609375 125.929688 287.734375 C 125.929688 296.859375 133.328125 304.253906 142.453125 304.253906 C 151.578125 304.253906 158.976562 296.859375 158.976562 287.734375 C 158.976562 278.609375 151.578125 271.210938 142.453125 271.210938 Z M 142.453125 271.210938 " clip-rule="nonzero"/></clipPath></defs><g clip-path="url(#8f0230cd6b)"><path fill="#26f4ee" d="M 255.953125 91.429688 C 221.683594 69.574219 205.976562 55.320312 198.363281 47.242188 L 198.363281 29.1875 C 198.363281 18.257812 189.320312 9.230469 178.375 9.230469 C 167.425781 9.230469 158.859375 18.257812 158.859375 29.1875 L 158.859375 238.730469 C 149.34375 234.453125 137.917969 232.550781 126.496094 232.550781 C 86.519531 232.078125 54.15625 258.683594 54.15625 291.472656 C 54.15625 324.257812 86.519531 350.867188 126.019531 350.867188 C 163.144531 350.867188 193.605469 327.582031 197.886719 297.648438 C 198.363281 296.222656 198.363281 294.796875 198.363281 293.371094 L 198.363281 107.113281 C 201.21875 110.914062 204.550781 113.765625 208.359375 115.664062 C 213.117188 118.515625 217.875 120.414062 223.113281 121.367188 C 230.25 123.265625 237.390625 122.792969 244.054688 124.21875 C 266.421875 128.492188 278.320312 154.152344 285.933594 172.683594 C 288.792969 179.808594 291.171875 186.9375 293.550781 194.066406 C 294.503906 197.867188 300.214844 197.390625 300.6875 193.589844 C 306.402344 145.597656 277.367188 105.210938 255.953125 91.429688 Z M 255.953125 91.429688 " fill-opacity="1" fill-rule="nonzero"/></g><g clip-path="url(#2c24402c73)"><path fill="#fe2c55" d="M 270.707031 106.636719 C 236.4375 84.78125 220.257812 70.523438 213.117188 61.972656 L 213.117188 43.917969 C 213.117188 32.988281 204.074219 23.960938 193.128906 23.960938 C 182.179688 23.960938 173.136719 32.988281 173.136719 43.917969 L 173.136719 253.457031 C 163.621094 249.183594 152.199219 247.28125 140.773438 247.28125 C 101.273438 246.808594 68.910156 273.414062 68.910156 306.199219 C 68.910156 338.988281 101.273438 365.59375 141.25 365.59375 C 178.375 365.59375 208.832031 342.3125 213.117188 312.378906 C 213.59375 310.953125 213.59375 309.527344 213.59375 308.101562 L 213.59375 121.839844 C 216.449219 125.640625 219.78125 128.492188 223.585938 130.394531 C 228.347656 133.246094 233.105469 135.144531 238.34375 136.097656 C 245.480469 137.996094 252.621094 137.519531 259.28125 138.945312 C 281.652344 143.222656 293.550781 168.882812 301.164062 187.414062 C 304.019531 194.539062 306.402344 201.667969 308.78125 208.792969 C 309.730469 212.59375 315.445312 212.121094 315.917969 208.320312 C 321.15625 160.804688 292.121094 119.941406 270.707031 106.636719 Z M 270.707031 106.636719 " fill-opacity="1" fill-rule="nonzero"/></g><path fill="#000000" d="M 263.566406 99.035156 C 229.300781 77.175781 213.117188 62.921875 205.976562 54.371094 L 205.976562 36.3125 C 205.976562 25.386719 196.933594 16.355469 185.988281 16.355469 C 175.042969 16.355469 166 25.386719 166 36.3125 L 166 245.855469 C 156.480469 241.578125 145.058594 239.679688 133.636719 239.679688 C 93.65625 239.203125 61.769531 265.8125 61.769531 298.597656 C 61.769531 331.382812 94.132812 357.992188 133.636719 357.992188 C 170.757812 357.992188 201.21875 334.710938 205.503906 304.777344 C 205.976562 303.351562 205.976562 301.925781 205.976562 300.5 L 205.976562 114.238281 C 208.832031 118.039062 212.164062 120.890625 215.972656 122.792969 C 220.730469 125.640625 225.492188 127.542969 230.726562 128.492188 C 237.867188 130.394531 245.003906 129.917969 251.667969 131.34375 C 274.035156 135.621094 285.933594 161.277344 293.550781 179.808594 C 296.40625 186.9375 298.785156 194.066406 301.164062 201.191406 C 302.117188 204.992188 307.828125 204.519531 308.304688 200.714844 C 314.015625 153.203125 284.507812 112.8125 263.566406 99.035156 Z M 263.566406 99.035156 " fill-opacity="1" fill-rule="nonzero"/><g clip-path="url(#db5412418f)"><g clip-path="url(#17c576711d)"><path fill="#000000" d="M 125.929688 271.210938 L 158.976562 271.210938 L 158.976562 304.253906 L 125.929688 304.253906 Z M 125.929688 271.210938 " fill-opacity="1" fill-rule="nonzero"/></g></g></svg>