<svg xmlns="http://www.w3.org/2000/svg" xmlns:xlink="http://www.w3.org/1999/xlink" width="500" zoomAndPan="magnify" viewBox="0 0 375 374.999991" height="500" preserveAspectRatio="xMidYMid meet" version="1.0"><defs><clipPath id="3ec37fd0b5"><path d="M 11.488281 55.492188 L 363.238281 55.492188 L 363.238281 319.492188 L 11.488281 319.492188 Z M 11.488281 55.492188 " clip-rule="nonzero"/></clipPath><clipPath id="b6de0eab61"><path d="M 113 305.1875 L 261 305.1875 L 261 307.4375 L 113 307.4375 Z M 113 305.1875 " clip-rule="nonzero"/></clipPath></defs><g clip-path="url(#3ec37fd0b5)"><path fill="#000000" d="M 81.839844 55.492188 C 43.019531 55.492188 11.492188 87.042969 11.492188 125.894531 L 11.492188 249.09375 C 11.492188 287.941406 43.019531 319.492188 81.839844 319.492188 L 292.886719 319.492188 C 331.710938 319.492188 363.238281 287.941406 363.238281 249.09375 L 363.238281 125.894531 C 363.238281 87.042969 331.710938 55.492188 292.886719 55.492188 Z M 81.839844 73.09375 L 292.886719 73.09375 C 322.269531 73.09375 345.648438 96.488281 345.648438 125.894531 L 345.648438 249.09375 C 345.648438 278.496094 322.269531 301.894531 292.886719 301.894531 L 81.839844 301.894531 C 52.457031 301.894531 29.078125 278.496094 29.078125 249.09375 L 29.078125 125.894531 C 29.078125 96.488281 52.457031 73.09375 81.839844 73.09375 Z M 147.105469 125.894531 C 146.558594 125.9375 146.019531 126.03125 145.488281 126.175781 C 144.957031 126.316406 144.445312 126.511719 143.953125 126.75 C 143.457031 126.992188 142.988281 127.273438 142.546875 127.601562 C 142.105469 127.929688 141.699219 128.296875 141.328125 128.699219 C 140.953125 129.105469 140.625 129.539062 140.332031 130.007812 C 140.042969 130.472656 139.796875 130.964844 139.597656 131.476562 C 139.398438 131.988281 139.25 132.515625 139.148438 133.058594 C 139.046875 133.597656 138.996094 134.144531 139 134.691406 L 139 240.292969 C 138.996094 240.835938 139.042969 241.378906 139.144531 241.914062 C 139.242188 242.449219 139.386719 242.972656 139.582031 243.480469 C 139.777344 243.988281 140.015625 244.476562 140.300781 244.941406 C 140.585938 245.402344 140.910156 245.835938 141.277344 246.242188 C 141.644531 246.644531 142.042969 247.011719 142.476562 247.339844 C 142.910156 247.671875 143.371094 247.957031 143.855469 248.199219 C 144.34375 248.445312 144.847656 248.640625 145.371094 248.792969 C 145.894531 248.941406 146.425781 249.042969 146.96875 249.09375 C 148.761719 249.292969 150.457031 248.972656 152.050781 248.128906 L 248.78125 195.332031 C 249.488281 194.953125 250.128906 194.492188 250.707031 193.945312 C 251.285156 193.394531 251.777344 192.777344 252.1875 192.09375 C 252.601562 191.410156 252.910156 190.683594 253.125 189.914062 C 253.339844 189.144531 253.445312 188.359375 253.445312 187.5625 C 253.445312 186.761719 253.339844 185.980469 253.125 185.210938 C 252.910156 184.441406 252.601562 183.714844 252.1875 183.03125 C 251.777344 182.347656 251.285156 181.730469 250.707031 181.179688 C 250.128906 180.628906 249.488281 180.167969 248.78125 179.792969 L 152.050781 126.992188 C 150.515625 126.128906 148.863281 125.761719 147.105469 125.894531 Z M 156.585938 149.679688 L 225.972656 187.492188 L 156.585938 225.441406 Z M 156.585938 149.679688 " fill-opacity="1" fill-rule="nonzero"/></g><g clip-path="url(#b6de0eab61)"><path fill="#000000" d="M 260.835938 306.3125 C 260.835938 306.933594 260.289062 307.4375 259.617188 307.4375 L 114.222656 307.4375 C 113.550781 307.4375 113.003906 306.933594 113.003906 306.3125 C 113.003906 305.691406 113.550781 305.1875 114.222656 305.1875 L 259.617188 305.1875 C 260.289062 305.1875 260.835938 305.691406 260.835938 306.3125 Z M 260.835938 306.3125 " fill-opacity="1" fill-rule="nonzero"/></g></svg>